<svg width="1000.098" height="330.098" xmlns="http://www.w3.org/2000/svg" xml:space="preserve" enable-background="new 0 0 1650.098 1650.098" version="1.1">

 <g>
  <title>Layer 1</title>
  <g stroke="null" id="svg_2">
   <path stroke="null" d="m893.05195,88.17241l-8.98067,-3.77402l-3.35891,2.45034c-4.2797,3.12222 -8.15002,3.11571 -11.50079,-0.01954c-2.25409,-2.10898 -2.95767,-2.29838 -4.80926,-1.29545c-3.81649,2.06665 -5.97668,0.44774 -5.58984,-4.18919c0.28168,-3.37838 0.77619,-4.16423 2.77238,-4.41062c1.55677,-0.19212 2.87254,0.41735 3.66313,1.69814c1.21687,1.97167 1.26695,1.96407 3.79583,-0.58504c3.77455,-3.80495 8.99006,-3.55585 12.91734,0.61652l3.01213,3.19928l7.13033,-1.98198c4.77734,-1.32802 10.82225,-3.23836 16.47468,-5.16987c-2.2278,4.90069 -4.43118,10.14165 -5.96291,14.28362l-2.28601,6.18203l3.69004,2.61153c4.81239,3.40551 5.09971,7.92684 0.71109,11.1994c-2.94014,2.19255 -2.9489,2.23543 -0.67479,3.291c1.47664,0.68544 2.18022,1.82568 1.95863,3.17595c-0.28419,1.73071 -1.1912,2.15945 -5.08719,2.40367c-5.34821,0.3354 -7.21483,-1.5375 -4.8318,-4.84641c1.15678,-1.60534 0.93769,-2.21535 -1.49417,-4.16965c-3.61555,-2.90513 -3.62306,-6.26126 -0.02253,-9.97124l2.82622,-2.91219l-4.35294,-7.78628zm0,686.10786l4.35294,-7.78628l-2.82622,-2.91219c-3.60053,-3.71052 -3.59302,-7.0661 0.02253,-9.97124c2.43186,-1.9543 2.65095,-2.56431 1.49417,-4.16965c-2.38366,-3.30891 -0.51642,-5.18181 4.8318,-4.84641c3.89598,0.24422 4.803,0.67296 5.08719,2.40367c0.22159,1.34972 -0.48136,2.4905 -1.95863,3.17595c-2.27412,1.05503 -2.26535,1.09845 0.67479,3.291c4.38862,3.27255 4.1013,7.79442 -0.71109,11.1994l-3.69004,2.61153l2.28601,6.18203c1.53173,4.14197 3.73511,9.38294 5.96291,14.28362c-5.65243,-1.93151 -11.69734,-3.84185 -16.47468,-5.16987l-7.13033,-1.98198l-3.01213,3.19928c-3.92791,4.17237 -9.14279,4.42147 -12.91734,0.61652c-2.52888,-2.54912 -2.57834,-2.55671 -3.79583,-0.58504c-0.79059,1.28026 -2.10573,1.89026 -3.66313,1.69814c-1.99619,-0.24639 -2.4907,-1.03278 -2.77238,-4.41062c-0.38684,-4.63693 1.77335,-6.25529 5.58984,-4.18919c1.85159,1.00293 2.55517,0.81298 4.80926,-1.29545c3.35077,-3.1347 7.22172,-3.14121 11.50079,-0.01954l3.35891,2.45034l8.98067,-3.77402zm-791.35423,0l8.98067,3.77402l3.35891,-2.45034c4.2797,-3.12168 8.15002,-3.11516 11.50079,0.01954c2.25409,2.10843 2.95767,2.29838 4.80926,1.29545c3.81649,-2.06665 5.97668,-0.44774 5.58984,4.18919c-0.28168,3.37784 -0.77619,4.16423 -2.77238,4.41062c-1.55677,0.19212 -2.87254,-0.41735 -3.66313,-1.69814c-1.2175,-1.97167 -1.26695,-1.96407 -3.79583,0.58504c-3.77455,3.80495 -8.99006,3.55585 -12.91734,-0.61652l-3.01213,-3.19928l-7.13033,1.98198c-4.77734,1.32802 -10.82225,3.23836 -16.47468,5.16987c2.2278,-4.90069 4.43118,-10.14165 5.96291,-14.28362l2.28601,-6.18203l-3.69004,-2.61153c-4.81239,-3.40551 -5.09971,-7.92684 -0.71109,-11.1994c2.94014,-2.19255 2.9489,-2.23543 0.67479,-3.291c-1.47664,-0.68544 -2.18022,-1.82568 -1.95863,-3.17595c0.28419,-1.73071 1.1912,-2.15945 5.08719,-2.40367c5.34821,-0.3354 7.21483,1.5375 4.8318,4.84641c-1.15678,1.60534 -0.93769,2.21535 1.49417,4.16965c3.61555,2.90513 3.62306,6.26126 0.02253,9.97124l-2.82622,2.91219l4.35294,7.78628zm0,-686.10786l-4.35294,7.78628l2.82622,2.91219c3.60116,3.71052 3.59364,7.0661 -0.02253,9.97124c-2.43249,1.9543 -2.65095,2.56431 -1.49417,4.16965c2.38366,3.30891 0.51642,5.18181 -4.8318,4.84641c-3.89661,-0.24422 -4.803,-0.67296 -5.08719,-2.40367c-0.22159,-1.34972 0.48136,-2.4905 1.95863,-3.17595c2.27412,-1.05557 2.26535,-1.09845 -0.67479,-3.291c-4.38862,-3.27255 -4.1013,-7.79442 0.71109,-11.1994l3.69004,-2.61153l-2.28601,-6.18203c-1.53173,-4.14197 -3.73511,-9.38294 -5.96291,-14.28362c5.65243,1.93151 11.69734,3.84185 16.47468,5.16987l7.13033,1.98198l3.01213,-3.19928c3.92791,-4.17237 9.14279,-4.42147 12.91734,-0.61652c2.52888,2.54912 2.57834,2.55671 3.79583,0.58504c0.79059,-1.28026 2.10573,-1.89026 3.66313,-1.69814c1.99619,0.24639 2.4907,1.03278 2.77238,4.41062c0.38684,4.63693 -1.77335,6.25529 -5.58984,4.18919c-1.85159,-1.00293 -2.55517,-0.81298 -4.80926,1.29545c-3.35077,3.1347 -7.22172,3.14121 -11.50079,0.01954l-3.35891,-2.45034l-8.98067,3.77402zm797.84608,-5.62846c-0.03756,0.01031 -0.07512,0.02008 -0.11267,0.02985c-2.33734,0.62086 -3.95858,1.3812 -3.60241,1.68946c0.07637,0.06621 0.4532,0.26267 1.07916,0.56605c0.34991,0.54217 0.57651,0.86942 0.65288,0.93563c0.35555,0.30826 1.23252,-1.09682 1.94862,-3.1233c0.01127,-0.03256 0.02316,-0.06513 0.03443,-0.09769zm0,697.36478c-0.01189,-0.03256 -0.02316,-0.06513 -0.03443,-0.09769c-0.7161,-2.02648 -1.59307,-3.43211 -1.94862,-3.1233c-0.07637,0.06621 -0.30297,0.39292 -0.65288,0.93563c-0.62534,0.30338 -1.00279,0.49984 -1.07916,0.56605c-0.35555,0.30826 1.26507,1.0686 3.60241,1.68946c0.03756,0.00977 0.07512,0.02008 0.11267,0.02985zm-804.33792,0c0.03756,-0.01031 0.07512,-0.02008 0.11267,-0.02985c2.33734,-0.62086 3.95858,-1.3812 3.60241,-1.68946c-0.07637,-0.06621 -0.45382,-0.26267 -1.07916,-0.56605c-0.34991,-0.54217 -0.57651,-0.86942 -0.65288,-0.93563c-0.35555,-0.30826 -1.23252,1.09682 -1.94862,3.1233c-0.01127,0.03256 -0.02253,0.06513 -0.03443,0.09769zm0,-697.36478c0.01189,0.03256 0.02316,0.06513 0.03443,0.09769c0.7161,2.02648 1.59307,3.43211 1.94862,3.1233c0.07637,-0.06621 0.30297,-0.39347 0.65288,-0.93563c0.62534,-0.30338 1.00279,-0.49984 1.07916,-0.56605c0.35555,-0.30826 -1.26507,-1.0686 -3.60241,-1.68946c-0.03756,-0.00977 -0.07512,-0.01954 -0.11267,-0.02985zm783.81891,2.31195c2.23656,-1.93911 2.19963,-2.6137 -0.28919,-5.27841c-2.68537,-2.87529 -7.62484,-2.0102 -8.64515,1.51362c-1.3214,4.56583 4.95887,7.21209 8.93435,3.76479l0,0zm-781.15231,15.47813c-2.23656,-1.93911 -3.01463,-1.90709 -6.0881,0.25073c-3.31634,2.32823 -2.31856,6.61077 1.74581,7.49485c5.26621,1.14621 8.3184,-4.29828 4.34229,-7.74558l0,0zm17.85242,677.26275c-2.23656,1.93911 -2.19963,2.6137 0.28919,5.27841c2.68537,2.87529 7.62484,2.0102 8.64453,-1.51362c1.32203,-4.56529 -4.95761,-7.21155 -8.93372,-3.76479l0,0zm781.15231,-15.47813c2.23656,1.93911 3.01463,1.90709 6.0881,-0.25073c3.31634,-2.32823 2.31856,-6.61077 -1.74581,-7.49539c-5.26559,-1.14566 -8.31778,4.29936 -4.34229,7.74612l0,0zm0,-661.78462c-3.97611,3.4473 -0.92329,8.89179 4.34229,7.74612c4.06437,-0.88408 5.06215,-5.16716 1.74581,-7.49485c-3.07347,-2.15836 -3.85154,-2.19038 -6.0881,-0.25128l0,0zm-781.15231,-15.47813c3.97611,3.4473 10.25575,0.80104 8.93435,-3.76479c-1.01969,-3.52383 -5.95978,-4.38891 -8.64453,-1.51362c-2.48945,2.66471 -2.52638,3.3393 -0.28982,5.27841l0,0zm-17.85242,677.26275c3.97611,-3.4473 0.92392,-8.89179 -4.34229,-7.74612c-4.06437,0.88462 -5.06215,5.16716 -1.74581,7.49539c3.07347,2.15782 3.85154,2.18984 6.0881,0.25073l0,0zm781.15231,15.47813c-3.97611,-3.4473 -10.25575,-0.8005 -8.93435,3.76479c1.02032,3.52383 5.95978,4.38891 8.64515,1.51362c2.48882,-2.66471 2.52575,-3.3393 0.28919,-5.27841l0,0zm-14.65689,-694.69681c1.08354,-0.93943 -0.40437,-3.28395 -2.0832,-3.28395c-0.85319,0 -1.55113,0.86888 -1.55113,1.93042c0,1.81754 2.16833,2.62455 3.63433,1.35352l0,0zm-768.75139,30.14166c-1.08354,-0.93943 -3.78769,0.35059 -3.78769,1.80614c0,0.73972 1.00216,1.3443 2.22654,1.3443c2.09634,0.00054 3.02715,-1.87887 1.56115,-3.15044l0,0zm34.76527,666.51109c-1.08354,0.93943 0.40437,3.28395 2.0832,3.28395c0.85319,0 1.55051,-0.86888 1.55051,-1.93042c0.00063,-1.817 -2.16708,-2.62455 -3.63371,-1.35352l0,0zm768.75139,-30.14166c1.08354,0.93943 3.78769,-0.35059 3.78769,-1.80614c0,-0.73972 -1.00216,-1.34484 -2.22654,-1.34484c-2.09572,0 -3.02715,1.87995 -1.56115,3.15098l0,0zm0,-636.36943c-1.466,1.27103 -0.53457,3.15098 1.56115,3.15098c1.22438,0 2.22654,-0.60512 2.22654,-1.3443c0,-1.4561 -2.70415,-2.74558 -3.78769,-1.80669l0,0zm-768.75139,-30.14166c1.466,1.27103 3.63433,0.46348 3.63433,-1.35352c0,-1.06154 -0.69795,-1.93042 -1.55051,-1.93042c-1.67945,0 -3.16674,2.34451 -2.08383,3.28395l0,0zm-34.76527,666.51109c1.466,-1.27103 0.53457,-3.15098 -1.56115,-3.15098c-1.22438,0 -2.22654,0.60512 -2.22654,1.34484c0,1.45555 2.70415,2.74558 3.78769,1.80614l0,0zm768.75139,30.14166c-1.466,-1.27103 -3.63433,-0.46348 -3.63433,1.35352c0,1.06154 0.69795,1.93042 1.55113,1.93042c1.67883,0 3.16674,-2.34451 2.0832,-3.28395l0,0zm-118.29732,-687.41471c-0.91829,-0.46782 -2.9777,-1.08705 -4.5764,-1.37577c-2.6065,-0.47053 -2.98333,-1.09573 -3.65687,-6.061c-0.64537,-4.76338 -0.45382,-5.74243 1.37524,-7.01346c3.30508,-2.29676 3.95232,-6.43385 1.48415,-9.48931c-2.75423,-3.40986 -4.87186,-6.94888 -4.15889,-6.94888c0.31173,0 2.31481,2.25117 4.45184,5.00271c3.69004,4.75035 7.50215,6.71714 8.98568,4.63584c2.06129,-2.89102 12.85725,2.17736 14.0472,6.59449c0.38371,1.42353 1.04849,3.31488 1.47789,4.2033c0.49952,1.03387 -0.05133,2.33583 -1.53235,3.61934c-1.27195,1.10279 -2.31293,2.60339 -2.31293,3.33496c0,1.89189 -3.01087,3.81255 -4.96012,3.16401c-0.90639,-0.30175 -1.94486,-0.13296 -2.30667,0.37447c-0.80937,1.13861 -6.05367,1.11256 -8.31778,-0.0407l0,0zm-639.79895,123.46796c-0.53958,0.79616 -1.2538,2.58168 -1.58681,3.96776c-0.54271,2.25985 -1.26382,2.58711 -6.99074,3.17052c-5.49406,0.56008 -6.6233,0.39347 -8.0893,-1.19234c-2.64907,-2.86552 -7.42077,-3.42668 -10.94494,-1.28677c-3.93292,2.38793 -8.01481,4.22392 -8.01481,3.60578c0,-0.27027 2.59649,-2.00695 5.77011,-3.85976c5.47904,-3.19928 7.74752,-6.5044 5.34696,-7.79062c-3.3345,-1.78715 2.51136,-11.14729 7.60606,-12.17899c1.6419,-0.33268 3.82337,-0.90904 4.84807,-1.28134c1.19246,-0.43308 2.69414,0.0445 4.17454,1.32856c1.27195,1.10279 3.00274,2.00532 3.84653,2.00532c2.1821,0 4.39738,2.61044 3.64936,4.30045c-0.34803,0.78585 -0.15336,1.6862 0.43191,1.99989c1.31327,0.70227 1.28322,5.24911 -0.04695,7.21155l0,0zm142.40748,554.70926c0.91829,0.46782 2.9777,1.08705 4.5764,1.37577c2.6065,0.47053 2.98396,1.09573 3.65687,6.061c0.64599,4.76338 0.45382,5.74243 -1.37524,7.01346c-3.30508,2.29676 -3.95232,6.43385 -1.48415,9.48931c2.75423,3.4104 4.87186,6.94888 4.15889,6.94888c-0.31173,0 -2.31481,-2.25117 -4.45184,-5.00271c-3.69004,-4.75035 -7.50215,-6.71714 -8.98568,-4.63584c-2.06129,2.89157 -12.85725,-2.17736 -14.0472,-6.59449c-0.38371,-1.42353 -1.04849,-3.31542 -1.47789,-4.2033c-0.49952,-1.03387 0.05133,-2.33583 1.53235,-3.61934c1.27195,-1.10279 2.31293,-2.60339 2.31293,-3.33496c0,-1.89189 3.01087,-3.81255 4.96012,-3.16401c0.90639,0.30175 1.94486,0.13296 2.30667,-0.37447c0.80999,-1.13915 6.0543,-1.1131 8.31778,0.0407l0,0zm639.79957,-123.4685c0.53958,-0.79616 1.2538,-2.58168 1.58681,-3.96776c0.54271,-2.25985 1.26382,-2.58656 6.99074,-3.17052c5.49406,-0.55954 6.6233,-0.39347 8.0893,1.19234c2.64907,2.86552 7.42077,3.42668 10.94494,1.28677c3.93354,-2.38793 8.01481,-4.22392 8.01481,-3.60578c0,0.27027 -2.59649,2.00695 -5.77011,3.85976c-5.47904,3.19928 -7.74752,6.5044 -5.34696,7.79062c3.33512,1.78715 -2.51136,11.14729 -7.60606,12.17899c-1.6419,0.33268 -3.824,0.90904 -4.84807,1.28134c-1.19246,0.43308 -2.69414,-0.0445 -4.17454,-1.32856c-1.27195,-1.10279 -3.00274,-2.00532 -3.84653,-2.00532c-2.1821,0 -4.39738,-2.61044 -3.64936,-4.30045c0.34803,-0.78585 0.15336,-1.6862 -0.43191,-1.99989c-1.31389,-0.70173 -1.28385,-5.24856 0.04695,-7.21155l0,0zm0,-431.24076c-1.33079,-1.96299 -1.36084,-6.50982 -0.04757,-7.21318c0.58527,-0.31369 0.77995,-1.2135 0.43191,-1.99989c-0.74802,-1.69 1.46725,-4.30045 3.64936,-4.30045c0.8438,0 2.57458,-0.90199 3.84653,-2.00532c1.4804,-1.28351 2.98271,-1.76164 4.17454,-1.32856c1.02407,0.3723 3.20555,0.94866 4.84807,1.28134c5.09533,1.03169 10.94118,10.39184 7.60606,12.17899c-2.40056,1.28623 -0.13208,4.59134 5.34696,7.79062c3.17362,1.85282 5.77011,3.59004 5.77011,3.85976c0,0.61869 -4.08127,-1.21784 -8.01481,-3.60578c-3.52416,-2.13991 -8.29649,-1.57875 -10.94494,1.28677c-1.466,1.5858 -2.59524,1.75242 -8.0893,1.19234c-5.72692,-0.58341 -6.44803,-0.91067 -6.99074,-3.17052c-0.33239,-1.38446 -1.04661,-3.16998 -1.58619,-3.96614l0,0zm-639.79957,-123.4685c-2.2641,1.1538 -7.50841,1.17985 -8.31965,0.04125c-0.36181,-0.50744 -1.39965,-0.67622 -2.30667,-0.37447c-1.94924,0.64854 -4.96012,-1.27212 -4.96012,-3.16401c0,-0.73158 -1.04035,-2.23217 -2.31293,-3.33496c-1.4804,-1.28351 -2.03187,-2.58602 -1.53235,-3.61934c0.42941,-0.88788 1.09418,-2.77923 1.47789,-4.2033c1.18995,-4.41767 11.98591,-9.48605 14.0472,-6.59449c1.48353,2.0813 5.29563,0.11451 8.98568,-4.63584c2.13703,-2.75155 4.14073,-5.00271 4.45184,-5.00271c0.7136,0 -1.40466,3.53848 -4.15889,6.94888c-2.46817,3.05547 -1.82092,7.1931 1.48415,9.48931c1.82906,1.27103 2.02123,2.25008 1.37524,7.01346c-0.67291,4.96473 -1.05036,5.59047 -3.65687,6.061c-1.59683,0.28872 -3.65624,0.90741 -4.57453,1.37523l0,0zm-142.40811,554.70926c1.33079,1.96299 1.36084,6.50982 0.04757,7.21318c-0.58527,0.31369 -0.77995,1.2135 -0.43191,1.99989c0.74802,1.69 -1.46725,4.30045 -3.64936,4.30045c-0.8438,0 -2.57458,0.90199 -3.84653,2.00532c-1.4804,1.28351 -2.98271,1.76164 -4.17454,1.32856c-1.02407,-0.3723 -3.20555,-0.94866 -4.84807,-1.28134c-5.09533,-1.03169 -10.94118,-10.39184 -7.60606,-12.17899c2.40056,-1.28623 0.13208,-4.59134 -5.34696,-7.79062c-3.17362,-1.85282 -5.77011,-3.59004 -5.77011,-3.85976c0,-0.61869 4.08127,1.21784 8.01481,3.60578c3.52416,2.13991 8.29649,1.57875 10.94494,-1.28677c1.466,-1.5858 2.59524,-1.75242 8.0893,-1.19234c5.7263,0.58341 6.44803,0.91067 6.99074,3.17052c0.33301,1.38446 1.04661,3.16998 1.58619,3.96614l0,0zm639.79957,123.4685c2.2641,-1.1538 7.50841,-1.17985 8.31965,-0.04125c0.36181,0.50744 1.39965,0.67622 2.30667,0.37447c1.94924,-0.64854 4.96012,1.27212 4.96012,3.16401c0,0.73158 1.04035,2.23217 2.31293,3.33496c1.4804,1.28351 2.03187,2.58602 1.53235,3.61934c-0.42941,0.88788 -1.09418,2.77923 -1.47789,4.2033c-1.18995,4.41767 -11.98591,9.48605 -14.0472,6.59449c-1.48353,-2.0813 -5.29563,-0.11451 -8.98568,4.63584c-2.13703,2.75155 -4.14073,5.00271 -4.45184,5.00271c-0.7136,0 1.40466,-3.53848 4.15889,-6.94888c2.46817,-3.05547 1.82092,-7.1931 -1.48415,-9.48931c-1.82906,-1.27103 -2.02123,-2.25008 -1.37524,-7.01346c0.67291,-4.96527 1.05036,-5.59047 3.65687,-6.061c1.59683,-0.28818 3.65624,-0.90741 4.57453,-1.37523l0,0zm3.34013,-680.10873c0,-0.53077 -0.50077,-0.96548 -1.11359,-0.96548s-1.11359,0.43417 -1.11359,0.96548c0,0.53077 0.50077,0.96548 1.11359,0.96548c0.61282,0 1.11359,-0.43471 1.11359,-0.96548zm-645.36688,122.50356c-0.61219,0 -1.11359,0.43417 -1.11359,0.96548s0.50077,0.96548 1.11359,0.96548c0.61219,0 1.11359,-0.43417 1.11359,-0.96548c0,-0.53077 -0.5014,-0.96548 -1.11359,-0.96548zm141.29515,559.53613c0,0.53077 0.50077,0.96494 1.11359,0.96494s1.11359,-0.43417 1.11359,-0.96494c0,-0.53077 -0.50077,-0.96548 -1.11359,-0.96548c-0.61219,0.00054 -1.11359,0.43471 -1.11359,0.96548zm645.36688,-122.50356c0.61219,0 1.11296,-0.43417 1.11296,-0.96548s-0.50077,-0.96548 -1.11296,-0.96548c-0.61219,0 -1.11359,0.43417 -1.11359,0.96548c0.00063,0.53131 0.5014,0.96548 1.11359,0.96548zm-1.11296,-436.06709c0,0.53077 0.50077,0.96548 1.11359,0.96548c0.61219,0 1.11296,-0.43417 1.11296,-0.96548s-0.50077,-0.96548 -1.11296,-0.96548c-0.61282,0 -1.11359,0.43471 -1.11359,0.96548zm-643.14033,-122.50356c0.61219,0 1.11359,-0.43417 1.11359,-0.96548c0,-0.53077 -0.50077,-0.96548 -1.11359,-0.96548s-1.11359,0.43417 -1.11359,0.96548c0,0.53077 0.5014,0.96548 1.11359,0.96548zm-141.29515,557.60571c0,-0.53077 -0.50077,-0.96548 -1.11359,-0.96548c-0.61219,0 -1.11359,0.43417 -1.11359,0.96548s0.50077,0.96548 1.11359,0.96548c0.61219,-0.00054 1.11359,-0.43471 1.11359,-0.96548zm643.14033,122.50356c-0.61219,0 -1.11359,0.43417 -1.11359,0.96548c0,0.53077 0.50077,0.96494 1.11359,0.96494s1.11359,-0.43417 1.11359,-0.96494c-0.00063,-0.53131 -0.5014,-0.96548 -1.11359,-0.96548zm4.45309,-681.13174c0,-0.56225 -0.50077,-0.75383 -1.11296,-0.42549c-0.61219,0.32834 -1.11359,0.78802 -1.11359,1.02193c0,0.23391 0.50077,0.42549 1.11359,0.42549s1.11296,-0.45968 1.11296,-1.02193l0,0zm-648.77273,119.66518c-0.6485,0 -0.86946,0.43417 -0.49075,0.96548c0.37871,0.53077 0.9089,0.96548 1.17869,0.96548c0.26979,0 0.49075,-0.43417 0.49075,-0.96548c0.00063,-0.53131 -0.53019,-0.96548 -1.17869,-0.96548l0,0zm138.02137,562.48848c0,0.56225 0.50077,0.75383 1.11359,0.42549s1.11359,-0.78802 1.11359,-1.02247c0,-0.23391 -0.50077,-0.42549 -1.11359,-0.42549c-0.61282,0.00054 -1.11359,0.46022 -1.11359,1.02247l0,0zm648.77211,-119.66464c0.6485,0 0.86946,-0.43417 0.49075,-0.96494c-0.37871,-0.53077 -0.9089,-0.96548 -1.17931,-0.96548c-0.26979,0 -0.49075,0.43417 -0.49075,0.96548s0.53082,0.96494 1.17931,0.96494l0,0zm0,-442.82385c-0.6485,0 -1.17869,0.43417 -1.17869,0.96548c0,0.53077 0.22096,0.96548 0.49075,0.96548c0.26979,0 0.8006,-0.43417 1.17931,-0.96548s0.15712,-0.96548 -0.49138,-0.96548l0,0zm-648.77211,-119.66518c0,0.56225 0.50077,1.02247 1.11359,1.02247c0.61219,0 1.11359,-0.19158 1.11359,-0.42549c0,-0.23391 -0.50077,-0.69413 -1.11359,-1.02193c-0.61282,-0.32888 -1.11359,-0.13731 -1.11359,0.42494l0,0zm-138.02137,562.48903c0.6485,0 1.17931,-0.43417 1.17931,-0.96494s-0.22096,-0.96548 -0.49075,-0.96548c-0.26979,0 -0.8006,0.43417 -1.17869,0.96548c-0.37933,0.53077 -0.15837,0.96494 0.49013,0.96494l0,0zm648.77273,119.66464c0,-0.56225 -0.50077,-1.02193 -1.11296,-1.02193s-1.11359,0.19158 -1.11359,0.42549c0,0.23391 0.50077,0.69413 1.11359,1.02247c0.61219,0.3278 1.11296,0.13622 1.11296,-0.42603l0,0zm-6.96445,-683.76986c0.25852,-0.67242 -0.51016,-0.86128 -2.0663,-0.50852c-1.97929,0.44882 -2.33484,0.23879 -1.76834,-1.04092c0.38997,-0.88191 0.25351,-1.60317 -0.30297,-1.60317c-1.99306,0 -2.24595,1.80289 -0.46822,3.34365c1.91857,1.66395 3.92478,1.58092 4.60582,-0.19103l0,0zm-643.6724,127.31904c-0.77557,-0.22414 -0.9934,0.44231 -0.58653,1.79149c0.51767,1.71551 0.27542,2.02431 -1.20059,1.53316c-1.01719,-0.33811 -1.84909,-0.2198 -1.84909,0.26267c0,1.72799 2.07944,1.94725 3.85655,0.40595c1.9192,-1.66341 1.82343,-3.40226 -0.22034,-3.99327l0,0zm146.8493,558.06756c-0.25852,0.67242 0.51016,0.86128 2.0663,0.50852c1.97866,-0.44882 2.33484,-0.23879 1.76834,1.04092c-0.38997,0.88191 -0.25351,1.60317 0.30297,1.60317c1.99306,0 2.24595,-1.80289 0.46822,-3.34365c-1.91857,-1.66395 -3.92415,-1.58092 -4.60582,0.19103l0,0zm643.67302,-127.31958c0.77557,0.22414 0.9934,-0.44231 0.58653,-1.79149c-0.51767,-1.71605 -0.27542,-2.02431 1.20059,-1.53316c1.01719,0.33811 1.84909,0.2198 1.84909,-0.26267c0,-1.72799 -2.07944,-1.94725 -3.85655,-0.40595c-1.9192,1.66341 -1.82343,3.4028 0.22034,3.99327l0,0zm0,-430.74797c-2.04376,0.59101 -2.13954,2.32986 -0.22034,3.99381c1.7771,1.54076 3.85655,1.32205 3.85655,-0.40595c0,-0.48301 -0.8319,-0.60132 -1.84909,-0.26267c-1.47664,0.49115 -1.71826,0.18235 -1.20059,-1.53316c0.40687,-1.34972 0.18904,-2.01617 -0.58653,-1.79203l0,0zm-643.67302,-127.31904c0.68167,1.77195 2.68725,1.85499 4.60645,0.19103c1.7771,-1.54076 1.52484,-3.34365 -0.46822,-3.34365c-0.55711,0 -0.69357,0.72126 -0.30297,1.60317c0.5665,1.28026 0.21032,1.48974 -1.76834,1.04092c-1.55677,-0.35331 -2.32545,-0.1639 -2.06692,0.50852l0,0zm-146.8493,558.06701c2.04376,-0.59101 2.13954,-2.32986 0.22034,-3.99381c-1.7771,-1.54076 -3.85655,-1.32205 -3.85655,0.40595c0,0.48301 0.8319,0.60132 1.84909,0.26267c1.47664,-0.49115 1.71826,-0.18235 1.20059,1.53316c-0.4075,1.35027 -0.18904,2.01617 0.58653,1.79203l0,0zm643.6724,127.31958c-0.68167,-1.77195 -2.68725,-1.85499 -4.60645,-0.19103c-1.7771,1.54076 -1.52484,3.34365 0.46822,3.34365c0.55711,0 0.69357,-0.72126 0.30297,-1.60317c-0.5665,-1.28026 -0.21032,-1.48974 1.76834,-1.04092c1.55739,0.35276 2.32545,0.1639 2.06692,-0.50852l0,0zm14.00464,-685.06694c0.32926,-0.7446 0.30422,-1.60914 -0.05696,-1.92228c-0.78496,-0.68056 -3.64372,1.22436 -3.64372,2.42863c0.00063,1.3812 3.05031,0.96386 3.70068,-0.50635zm-657.30834,114.8573c-0.85882,-0.28547 -1.85598,-0.26376 -2.21716,0.04939c-0.78496,0.68056 1.41217,3.15912 2.80118,3.15912c1.59307,0 1.11171,-2.64463 -0.58402,-3.20851zm132.47598,569.88944c-0.32926,0.7446 -0.30422,1.60914 0.05696,1.92228c0.78496,0.68056 3.64372,-1.22436 3.64372,-2.42863c0,-1.3812 -3.05031,-0.96331 -3.70068,0.50635zm657.30834,-114.8573c0.85882,0.28547 1.85598,0.26376 2.21716,-0.04939c0.78496,-0.68056 -1.41217,-3.15912 -2.80118,-3.15912c-1.59307,0.00054 -1.11108,2.64463 0.58402,3.20851zm-0.58402,-451.82363c1.38838,0 3.58613,-2.47856 2.80118,-3.15912c-0.36055,-0.3126 -1.35834,-0.33485 -2.21716,-0.04939c-1.6951,0.56388 -2.17709,3.20851 -0.58402,3.20851zm-653.02364,-117.55946c0,-1.20373 -2.85877,-3.10919 -3.64372,-2.42863c-0.36055,0.3126 -0.38622,1.17768 -0.05696,1.92228c0.65037,1.47021 3.70068,1.88755 3.70068,0.50635zm-135.59264,566.17512c-1.38838,0 -3.58613,2.47856 -2.80118,3.15912c0.36055,0.3126 1.35834,0.33485 2.21716,0.04939c1.69573,-0.56442 2.17709,-3.20851 0.58402,-3.20851zm653.02426,117.55892c0,1.20373 2.85877,3.10919 3.64372,2.42863c0.36055,-0.3126 0.38622,-1.17768 0.05696,-1.92228c-0.651,-1.46966 -3.70068,-1.88755 -3.70068,-0.50635zm7.26929,-688.72427c0.39623,-0.55628 0.41251,-1.709 0.03505,-2.5616c-0.60593,-1.36872 -0.87384,-1.33507 -2.28977,0.28764c-0.88198,1.01053 -1.61999,2.16325 -1.63939,2.5616c-0.05383,1.09682 3.07159,0.86617 3.89411,-0.28764l0,0zm-666.04927,116.24718c-0.64161,-0.34408 -1.97115,-0.35765 -2.95454,-0.03039c-1.57867,0.52534 -1.53987,0.75763 0.33176,1.98524c1.16554,0.76468 2.49508,1.40454 2.95454,1.42136c1.26507,0.04667 0.99903,-2.66363 -0.33176,-3.37621l0,0zm134.07906,577.46732c-0.39686,0.55628 -0.41251,1.709 -0.03505,2.56106c0.60593,1.36872 0.87384,1.33507 2.28977,-0.28764c0.88198,-1.01053 1.61999,-2.16325 1.63939,-2.56106c0.05383,-1.09628 -3.07222,-0.86562 -3.89411,0.28764l0,0zm666.04864,-116.24664c0.64161,0.34354 1.97115,0.35765 2.95391,0.03039c1.57867,-0.52534 1.53987,-0.75763 -0.33176,-1.98524c-1.16554,-0.76468 -2.49508,-1.40454 -2.95391,-1.42136c-1.26444,-0.04667 -0.99841,2.66309 0.33176,3.37621l0,0zm0,-461.22068c-1.33079,0.71258 -1.59683,3.42288 -0.33176,3.37621c0.45946,-0.01682 1.789,-0.65668 2.95391,-1.42136c1.871,-1.22816 1.90981,-1.45989 0.33176,-1.98524c-0.98276,-0.32726 -2.3123,-0.31369 -2.95391,0.03039l0,0zm-666.04864,-116.24718c0.82189,1.1538 3.94794,1.38446 3.89411,0.28764c-0.0194,-0.39835 -0.75741,-1.55107 -1.63939,-2.5616c-1.41655,-1.62216 -1.68384,-1.65581 -2.28977,-0.28764c-0.37745,0.8526 -0.36181,2.00532 0.03505,2.5616l0,0zm-134.07906,577.46787c1.33079,-0.71258 1.59683,-3.42288 0.33176,-3.37621c-0.45946,0.01682 -1.789,0.65668 -2.95454,1.42136c-1.871,1.22816 -1.90981,1.46044 -0.33176,1.98524c0.98339,0.32671 2.31293,0.31314 2.95454,-0.03039l0,0zm666.04927,116.24664c-0.82189,-1.1538 -3.94794,-1.38446 -3.89411,-0.28764c0.0194,0.39835 0.75741,1.55107 1.63939,2.56106c1.41655,1.62216 1.68446,1.65581 2.28977,0.28764c0.37683,-0.85206 0.36118,-2.00478 -0.03505,-2.56106l0,0zm-21.18567,-697.04675c0,-2.68154 -2.1652,-3.27092 -3.22433,-0.87811c-0.80436,1.817 0.04632,3.291 1.89854,3.291c0.72925,0 1.32579,-1.08542 1.32579,-2.4129l0,0zm-648.70701,137.9475c-3.09288,0 -3.77267,1.87724 -1.01281,2.79551c2.09572,0.69738 3.79583,-0.04016 3.79583,-1.64604c0,-0.63226 -1.25192,-1.15001 -2.78302,-1.14946l0,0zm159.10813,562.4315c0,2.68154 2.1652,3.27092 3.22433,0.87811c0.80436,-1.817 -0.04632,-3.291 -1.89854,-3.291c-0.72925,0 -1.32641,1.08597 -1.32579,2.4129l0,0zm648.70638,-137.94696c3.09288,0 3.77267,-1.87724 1.01281,-2.79551c-2.09572,-0.69738 -3.79583,0.04016 -3.79583,1.64604c0,0.63226 1.25255,1.14946 2.78302,1.14946l0,0zm0,-424.48508c-1.53048,0 -2.78302,0.5172 -2.78302,1.14946c0,1.60588 1.70011,2.34343 3.79583,1.64604c2.76049,-0.91773 2.08007,-2.79496 -1.01281,-2.79551l0,0zm-648.70701,-137.94696c0,1.32693 0.59654,2.4129 1.32579,2.4129c1.85222,0 2.7029,-1.474 1.89854,-3.291c-1.0585,-2.39282 -3.2237,-1.80289 -3.22433,0.87811l0,0zm-159.10751,562.43204c1.53048,0 2.78302,-0.5172 2.78302,-1.14946c0,-1.60588 -1.70011,-2.34343 -3.79583,-1.64604c-2.75986,0.91827 -2.07944,2.79551 1.01281,2.79551l0,0zm648.70701,137.94696c0,-1.32693 -0.59654,-2.4129 -1.32579,-2.4129c-1.85222,0 -2.7029,1.474 -1.89854,3.291c1.05913,2.39336 3.22433,1.80343 3.22433,-0.87811l0,0zm11.13272,-699.90956c0,-2.06882 -3.23497,-1.77033 -3.70381,0.34245c-0.28669,1.29003 0.16713,1.68295 1.65442,1.43439c1.12736,-0.18832 2.0494,-0.98773 2.0494,-1.77684zm-659.29827,127.82539c-2.38617,0 -2.04189,2.80473 0.39498,3.21122c1.48791,0.24856 1.94111,-0.1449 1.65442,-1.43439c-0.21721,-0.97688 -1.13925,-1.77684 -2.0494,-1.77684zm147.43333,571.61472c0,2.06882 3.23497,1.77033 3.70381,-0.34191c0.28669,-1.29003 -0.16713,-1.68295 -1.65442,-1.43439c-1.12673,0.18778 -2.0494,0.98773 -2.0494,1.77629zm659.29827,-127.82539c2.38617,0 2.04189,-2.80473 -0.39436,-3.21122c-1.48791,-0.24856 -1.94111,0.1449 -1.65442,1.43439c0.21658,0.97742 1.13925,1.77684 2.04877,1.77684zm-2.0494,-442.01249c-0.28669,1.29003 0.16713,1.68295 1.65442,1.43439c2.43624,-0.40649 2.78115,-3.21122 0.39436,-3.21122c-0.9089,0 -1.83156,0.79996 -2.04877,1.77684zm-655.19948,-127.82539c1.48791,0.24856 1.94111,-0.1449 1.65442,-1.43439c-0.46885,-2.11223 -3.70381,-2.41127 -3.70381,-0.34245c0,0.7891 0.92267,1.58852 2.0494,1.77684zm-147.43333,568.06105c0.28669,-1.29003 -0.16713,-1.68295 -1.65442,-1.43439c-2.43624,0.40649 -2.78115,3.21122 -0.39498,3.21122c0.91015,0 1.83219,-0.79941 2.0494,-1.77684zm655.19948,127.82539c-1.48791,-0.24856 -1.94111,0.1449 -1.65442,1.43439c0.46885,2.11223 3.70381,2.41127 3.70381,0.34191c0,-0.78802 -0.92204,-1.58797 -2.0494,-1.77629zm10.3822,-701.26959c-0.00876,-0.39835 -0.4895,-1.37197 -1.06664,-2.16379c-0.79372,-1.08814 -1.36397,-1.16792 -2.33546,-0.32563c-0.70671,0.61272 -0.94896,1.58635 -0.53707,2.16379c0.84254,1.18257 3.96547,1.44036 3.93918,0.32563l0,0zm-671.79059,124.20768c-0.45946,0.0076 -1.58243,0.4244 -2.49571,0.92532c-1.25505,0.68816 -1.34707,1.18203 -0.37558,2.02486c0.70671,0.61272 1.82969,0.82275 2.49571,0.46565c1.36397,-0.73103 1.6613,-3.43862 0.37558,-3.41583l0,0zm143.26067,582.44507c0.00876,0.39835 0.4895,1.37197 1.06726,2.16379c0.79372,1.08814 1.36334,1.16792 2.33546,0.32563c0.70671,-0.61272 0.94896,-1.58635 0.53707,-2.16379c-0.84317,-1.18257 -3.96609,-1.44036 -3.9398,-0.32563l0,0zm671.78996,-124.20713c0.45946,-0.0076 1.58243,-0.4244 2.49571,-0.92478c1.25505,-0.68816 1.34707,-1.18257 0.37558,-2.02486c-0.70671,-0.61272 -1.82969,-0.82275 -2.49571,-0.46565c-1.36397,0.73049 -1.6613,3.43808 -0.37558,3.41528l0,0zm0,-458.23848c-1.28572,-0.02279 -0.98839,2.68479 0.37558,3.41583c0.6654,0.35656 1.78837,0.14707 2.49571,-0.46565c0.97149,-0.84229 0.8801,-1.3367 -0.37558,-2.02486c-0.91328,-0.50038 -2.03625,-0.91773 -2.49571,-0.92532l0,0zm-671.79059,-124.20713c-0.02629,1.11473 3.09663,0.85694 3.9398,-0.32563c0.41126,-0.5769 0.16964,-1.55107 -0.53707,-2.16379c-0.97149,-0.84229 -1.54174,-0.76305 -2.33546,0.32563c-0.57714,0.79182 -1.0585,1.76544 -1.06726,2.16379l0,0zm-143.26004,582.44562c1.28572,0.02279 0.98839,-2.68479 -0.37558,-3.41583c-0.6654,-0.35656 -1.789,-0.14707 -2.49571,0.46565c-0.97149,0.84229 -0.8801,1.3367 0.37558,2.02486c0.91328,0.50092 2.03625,0.91773 2.49571,0.92532l0,0zm671.79059,124.20713c0.02629,-1.11473 -3.09663,-0.85694 -3.9398,0.32563c-0.41126,0.5769 -0.16964,1.55053 0.53707,2.16379c0.97149,0.84229 1.54174,0.76305 2.33546,-0.32563c0.57776,-0.79182 1.0585,-1.76544 1.06726,-2.16379l0,0zm-12.861,-710.86093c-0.84567,-1.18637 -4.64463,-1.08162 -5.52411,0.15196c-0.39623,0.55628 -0.43504,1.65744 -0.08576,2.44654c0.55335,1.25041 0.99528,1.23087 3.42902,-0.15196c1.53611,-0.87268 2.51762,-1.9733 2.18085,-2.44654l0,0zm-663.78329,139.56641c-1.36835,0.7332 -1.24754,4.02692 0.17527,4.78943c0.64161,0.34354 1.91169,0.37718 2.82183,0.07435c1.44222,-0.47976 1.41968,-0.86291 -0.17527,-2.97297c-1.00655,-1.33236 -2.276,-2.18333 -2.82183,-1.89081l0,0zm160.97538,575.50271c0.84567,1.18637 4.64463,1.08162 5.52411,-0.15196c0.39623,-0.55628 0.43504,-1.65744 0.08576,-2.44654c-0.55335,-1.25041 -0.99528,-1.23087 -3.42902,0.15196c-1.53674,0.87268 -2.51824,1.97384 -2.18085,2.44654l0,0zm663.78266,-139.56587c1.36835,-0.7332 1.24754,-4.02692 -0.17527,-4.78943c-0.64161,-0.34354 -1.91169,-0.37718 -2.82183,-0.07435c-1.44222,0.47976 -1.41968,0.86291 0.17527,2.97297c1.00655,1.33181 2.27662,2.18279 2.82183,1.89081l0,0zm0,-435.93684c-0.54521,-0.29198 -1.81529,0.55845 -2.82183,1.89081c-1.59432,2.11006 -1.61686,2.49322 -0.17527,2.97297c0.91077,0.30283 2.18022,0.26973 2.82183,-0.07435c1.42281,-0.76251 1.54362,-4.05623 0.17527,-4.78943l0,0zm-663.78266,-139.56587c-0.33677,0.4727 0.64411,1.57386 2.18085,2.44654c2.43374,1.38283 2.87567,1.40237 3.42902,0.15196c0.34929,-0.78965 0.3111,-1.89026 -0.08576,-2.44654c-0.87948,-1.23413 -4.67844,-1.33833 -5.52411,-0.15196l0,0zm-160.97475,575.50271c0.54521,0.29198 1.81529,-0.55845 2.82183,-1.89081c1.59495,-2.11006 1.61748,-2.49322 0.17527,-2.97297c-0.91077,-0.30283 -2.18022,-0.26973 -2.82183,0.07435c-1.42344,0.76197 -1.54362,4.05623 -0.17527,4.78943l0,0zm663.78266,139.56587c0.33677,-0.4727 -0.64411,-1.57386 -2.18085,-2.44654c-2.43374,-1.38229 -2.87567,-1.40182 -3.42902,-0.15196c-0.34929,0.78965 -0.3111,1.89026 0.08576,2.44654c0.87885,1.23358 4.67844,1.33833 5.52411,0.15196l0,0zm6.75475,-715.92877c-0.37871,-0.53077 -1.6901,-0.96548 -2.91448,-0.96548c-1.22438,0 -1.91669,0.43417 -1.53861,0.96548c0.37871,0.53077 1.6901,0.96548 2.91448,0.96548c1.22501,0 1.91732,-0.43417 1.53861,-0.96548zm-671.52956,134.56912c-0.61219,0.32834 -1.11359,1.46532 -1.11359,2.52686c0,1.06154 0.50077,1.66178 1.11359,1.33398c0.61219,-0.32834 1.11359,-1.46532 1.11359,-2.52686c0,-1.06154 -0.50077,-1.66178 -1.11359,-1.33398zm155.21152,582.21931c0.37871,0.53077 1.6901,0.96548 2.91448,0.96548c1.22438,0 1.91669,-0.43417 1.53861,-0.96548c-0.37871,-0.53077 -1.6901,-0.96548 -2.91448,-0.96548c-1.22438,0 -1.91669,0.43471 -1.53861,0.96548zm671.52956,-134.56912c0.61219,-0.32834 1.11359,-1.46532 1.11359,-2.52686c0,-1.06154 -0.50077,-1.66178 -1.11359,-1.33398c-0.61219,0.32834 -1.11359,1.46532 -1.11359,2.52686c0,1.06209 0.5014,1.66233 1.11359,1.33398zm-1.11359,-446.3162c0,1.06209 0.50077,2.19907 1.11359,2.52686c0.61219,0.32834 1.11359,-0.27244 1.11359,-1.33398c0,-1.06209 -0.50077,-2.19907 -1.11359,-2.52686c-0.61219,-0.3278 -1.11359,0.27244 -1.11359,1.33398zm-668.87736,-134.93762c1.22501,0 2.5364,-0.43417 2.91448,-0.96548c0.37871,-0.53077 -0.31423,-0.96548 -1.53861,-0.96548c-1.22501,0 -2.5364,0.43417 -2.91448,0.96548c-0.37808,0.53131 0.31423,0.96548 1.53861,0.96548zm-155.63655,579.91984c0,-1.06209 -0.50077,-2.19907 -1.11359,-2.52686c-0.61219,-0.3278 -1.11359,0.27244 -1.11359,1.33398c0,1.06209 0.50077,2.19907 1.11359,2.52686c0.61282,0.32834 1.11359,-0.2719 1.11359,-1.33398zm668.87736,134.93762c-1.22501,0 -2.5364,0.43417 -2.91448,0.96548c-0.37808,0.53077 0.31423,0.96548 1.53861,0.96548c1.22501,0 2.5364,-0.43417 2.91448,-0.96548s-0.31361,-0.96548 -1.53861,-0.96548zm-88.61298,-702.22314c-10.89423,-1.57386 -23.74898,-10.83252 -29.30313,-21.10497c-2.77426,-5.13188 -2.98396,-6.43385 -2.98396,-18.54988c0,-13.02236 0.00188,-13.03539 4.09692,-20.46891c6.34349,-11.51742 17.18264,-19.71128 31.91464,-24.1257c6.39044,-1.91469 9.54591,-2.21372 22.99282,-2.18007c14.0134,0.03528 16.46028,0.30338 24.251,2.6582c23.59749,7.13231 40.74759,18.14936 56.66015,36.39586c2.0832,2.38902 7.36131,8.68718 11.72864,13.99599c4.36796,5.3088 10.10928,11.67427 12.7596,14.14523c5.23429,4.8806 14.72324,11.4333 16.55668,11.4333c0.62847,0 2.3461,0.68382 3.81711,1.51905c3.90663,2.21915 12.65005,4.00521 23.41409,4.78237c5.20237,0.37556 9.45828,1.03495 9.45828,1.46424c0,0.71692 -4.43243,0.58938 -17.81298,-0.51123c-6.60702,-0.54325 -19.94814,-5.1156 -30.08997,-10.3126c-11.81502,-6.0534 -25.5555,-18.24325 -38.44154,-34.10399c-17.63772,-21.70792 -29.96352,-30.84447 -49.61809,-36.78065c-9.72681,-2.93715 -23.52363,-3.9238 -35.08013,-2.50841c-20.7669,2.54315 -38.49037,16.28189 -43.93874,34.05895c-1.03284,3.36915 -1.06852,6.88267 -0.15148,14.74439c1.00968,8.65571 1.77648,11.21242 4.75042,15.84663c12.16055,18.94497 38.78457,24.27657 56.53934,11.32313c4.75606,-3.46955 8.34594,-12.05417 7.74377,-18.51732c-0.52017,-5.58342 -4.70347,-11.37578 -9.3118,-12.89483c-1.47038,-0.48464 -2.67411,-1.32639 -2.67411,-1.87073c0,-1.42245 0.93832,-1.24064 5.10096,0.98991c15.99957,8.57321 9.49834,34.066 -10.17,39.87736c-5.41206,1.59883 -14.07349,1.86964 -22.20661,0.69467l-0.00188,0zm-565.692,199.13117c-1.81529,9.44535 -12.49419,20.59048 -24.34239,25.40596c-5.91909,2.4053 -7.42077,2.58711 -21.39536,2.58711c-15.01994,0 -15.03497,-0.00163 -23.60876,-3.55205c-13.28415,-5.49984 -22.73492,-14.89797 -27.82649,-27.67015c-2.20839,-5.54054 -2.5533,-8.27635 -2.51449,-19.93488c0.04069,-12.14968 0.34991,-14.27114 3.06596,-21.02573c8.22639,-20.45914 20.9334,-35.32835 41.97885,-49.12516c2.75548,-1.80614 10.01976,-6.38229 16.14292,-10.16879c6.12315,-3.78704 13.46506,-8.76479 16.31506,-11.06263c5.62927,-4.53815 13.18713,-12.76512 13.18713,-14.35472c0,-0.54488 0.78871,-2.03408 1.75207,-3.30945c2.55956,-3.38706 4.6196,-10.96766 5.51597,-20.30012c0.43317,-4.51048 1.19371,-8.20037 1.68884,-8.20037c0.8269,0 0.67979,3.84294 -0.58966,15.44394c-0.62659,5.72832 -5.90031,17.29513 -11.89452,26.08814c-6.98197,10.24368 -21.04169,22.15674 -39.33542,33.329c-25.03783,15.29198 -35.57589,25.97852 -42.42266,43.01912c-3.3877,8.43319 -4.5257,20.3951 -2.89319,30.41464c2.93326,18.005 18.77947,33.37133 39.28346,38.09509c3.88597,0.89547 7.93844,0.92641 17.00612,0.13134c9.98346,-0.87539 12.93236,-1.54022 18.27745,-4.11918c21.85106,-10.54326 28.00051,-33.62641 13.06006,-49.01988c-4.00177,-4.12352 -13.90323,-7.23597 -21.3578,-6.71388c-6.43989,0.45099 -13.12078,4.07793 -14.87284,8.07338c-0.55898,1.27483 -1.52985,2.31846 -2.15769,2.31846c-1.64064,0 -1.43095,-0.81352 1.14175,-4.42256c9.88831,-13.87171 39.2916,-8.2351 45.9944,8.81743c1.84408,4.69228 2.15644,12.20178 0.80123,19.25323l0,0.00271zm229.67715,490.45764c10.89423,1.57386 23.74898,10.83252 29.30313,21.10497c2.77426,5.13188 2.98396,6.43385 2.98396,18.54988c0,13.02236 -0.00188,13.03539 -4.09692,20.46891c-6.34349,11.51742 -17.18327,19.71128 -31.91464,24.1257c-6.39044,1.91469 -9.54591,2.21372 -22.99282,2.18007c-14.0134,-0.03528 -16.46028,-0.30338 -24.251,-2.6582c-23.59749,-7.13231 -40.74759,-18.14936 -56.66078,-36.39586c-2.0832,-2.38902 -7.36131,-8.68718 -11.72864,-13.99599c-4.36796,-5.3088 -10.10928,-11.67427 -12.7596,-14.14523c-5.23429,-4.8806 -14.72324,-11.43385 -16.55668,-11.43385c-0.62847,0 -2.3461,-0.68382 -3.81711,-1.51905c-3.90663,-2.21915 -12.65005,-4.00521 -23.41409,-4.78237c-5.20237,-0.37556 -9.45828,-1.03495 -9.45828,-1.46424c0,-0.71692 4.43243,-0.58938 17.81298,0.51123c6.60702,0.54325 19.94814,5.1156 30.08997,10.3126c11.81502,6.0534 25.5555,18.24325 38.44154,34.10345c17.63772,21.70792 29.96352,30.84447 49.61809,36.78065c9.72681,2.93715 23.52363,3.9238 35.08013,2.50841c20.7669,-2.54315 38.49037,-16.28189 43.93874,-34.05895c1.03284,-3.36915 1.06852,-6.88267 0.15148,-14.74439c-1.00968,-8.65571 -1.77648,-11.21242 -4.75105,-15.84663c-12.16055,-18.94497 -38.78457,-24.27657 -56.53934,-11.32313c-4.75606,3.46955 -8.34594,12.05471 -7.74377,18.51732c0.52017,5.58342 4.70347,11.37578 9.3118,12.89483c1.47038,0.48464 2.67411,1.32639 2.67411,1.87073c0,1.42245 -0.93832,1.24064 -5.10096,-0.98991c-15.99957,-8.57321 -9.49834,-34.066 10.17,-39.87736c5.41206,-1.59883 14.07349,-1.86964 22.20661,-0.69467l0.00313,0.00109zm565.692,-199.13117c1.81529,-9.44535 12.49419,-20.59048 24.34239,-25.40596c5.91909,-2.4053 7.42077,-2.58711 21.39536,-2.58711c15.01994,0 15.03497,0.00163 23.60876,3.55205c13.28415,5.49984 22.73492,14.89743 27.82649,27.67015c2.20839,5.54054 2.5533,8.27635 2.51449,19.93488c-0.04069,12.14968 -0.34991,14.27114 -3.06596,21.02573c-8.22639,20.45914 -20.9334,35.32835 -41.97885,49.12462c-2.75548,1.80614 -10.01976,6.38229 -16.14292,10.16879c-6.12315,3.78704 -13.46506,8.76479 -16.31506,11.06263c-5.62927,4.53815 -13.18776,12.76512 -13.18776,14.35472c0,0.54488 -0.78871,2.03408 -1.75207,3.30945c-2.55956,3.38706 -4.6196,10.96766 -5.51597,20.30012c-0.43317,4.51048 -1.19371,8.20037 -1.68884,8.20037c-0.8269,0 -0.67979,-3.84294 0.58966,-15.44394c0.62659,-5.72832 5.90031,-17.29513 11.89452,-26.08814c6.98197,-10.24368 21.04169,-22.15674 39.33479,-33.329c25.03783,-15.29198 35.57589,-25.97852 42.42266,-43.01912c3.3877,-8.43319 4.5257,-20.3951 2.89319,-30.41464c-2.93326,-18.005 -18.77947,-33.37133 -39.28346,-38.09509c-3.88597,-0.89547 -7.93844,-0.92641 -17.00612,-0.13134c-9.98346,0.87539 -12.93236,1.54022 -18.27745,4.11864c-21.85106,10.54326 -28.00051,33.62641 -13.06006,49.01988c4.00177,4.12352 13.90386,7.23597 21.3578,6.71388c6.43989,-0.45099 13.12078,-4.07793 14.87284,-8.07338c0.55898,-1.27483 1.52985,-2.31846 2.15769,-2.31846c1.64064,0 1.43095,0.81352 -1.14175,4.42256c-9.88831,13.87171 -39.2916,8.2351 -45.9944,-8.81743c-1.84408,-4.69228 -2.15644,-12.20178 -0.80123,-19.25323l0.00125,-0.00163zm-0.00125,-291.32972c-1.35521,-7.05145 -1.04285,-14.56095 0.80123,-19.25323c6.70217,-17.05254 36.10608,-22.68914 45.9944,-8.81743c2.5727,3.60903 2.7824,4.42256 1.14175,4.42256c-0.62721,0 -1.59808,-1.04309 -2.15769,-2.31846c-1.75207,-3.99544 -8.43295,-7.62184 -14.87284,-8.07338c-7.45395,-0.52209 -17.35603,2.59036 -21.3578,6.71388c-14.94045,15.39347 -8.791,38.47662 13.06006,49.01988c5.34508,2.57897 8.29399,3.24379 18.27745,4.11918c9.06768,0.79507 13.11953,0.76414 17.00612,-0.13134c20.50337,-4.72376 36.35021,-20.0901 39.28346,-38.09509c1.63251,-10.01954 0.49451,-21.98145 -2.89319,-30.41464c-6.84677,-17.0406 -17.38483,-27.72713 -42.42266,-43.01912c-18.2931,-11.17226 -32.35282,-23.08532 -39.33479,-33.329c-5.99421,-8.79301 -11.26731,-20.35982 -11.89452,-26.08814c-1.26945,-11.601 -1.41592,-15.44394 -0.58966,-15.44394c0.49576,0 1.25568,3.6899 1.68884,8.20037c0.89638,9.33247 2.95642,16.91306 5.51597,20.30012c0.96398,1.27537 1.75207,2.76457 1.75207,3.30945c0,1.5896 7.55786,9.81657 13.18776,14.35472c2.85,2.29784 10.1919,7.27559 16.31506,11.06263c6.12315,3.7865 13.38744,8.36264 16.14292,10.16879c21.04545,13.79627 33.75184,28.66602 41.97885,49.12516c2.71605,6.75405 3.02527,8.87605 3.06596,21.02573c0.03881,11.65853 -0.3061,14.39434 -2.51449,19.93488c-5.09157,12.77272 -14.54234,22.17031 -27.82649,27.67015c-8.57379,3.55042 -8.58882,3.55205 -23.60876,3.55205c-13.97522,0 -15.47627,-0.18127 -21.39536,-2.58711c-11.84757,-4.81548 -22.5271,-15.9606 -24.34239,-25.40596l-0.00125,-0.00271zm-565.6945,-199.12629c-8.13312,1.17497 -16.79455,0.90416 -22.20661,-0.69467c-19.66833,-5.81081 -26.16957,-31.30414 -10.17,-39.87736c4.16264,-2.23054 5.10096,-2.41235 5.10096,-0.98991c0,0.5438 -1.2031,1.38554 -2.67411,1.87073c-4.60833,1.51905 -8.791,7.31141 -9.3118,12.89483c-0.60217,6.46261 2.98771,15.04776 7.74377,18.51732c17.75477,12.95344 44.37879,7.62184 56.53934,-11.32313c2.97457,-4.63421 3.74137,-7.19093 4.75105,-15.84663c0.91703,-7.86172 0.88135,-11.37469 -0.15148,-14.74439c-5.44837,-17.77652 -23.17184,-31.5158 -43.93874,-34.05895c-11.5565,-1.41539 -25.35332,-0.42874 -35.08013,2.50841c-19.65456,5.93618 -31.98037,15.07273 -49.61809,36.78065c-12.88604,15.8602 -26.62652,28.05005 -38.44154,34.10399c-10.14183,5.19701 -23.48294,9.76881 -30.08997,10.3126c-13.38055,1.10062 -17.81298,1.22761 -17.81298,0.51123c0,-0.42983 4.25591,-1.08868 9.45828,-1.46424c10.76403,-0.77716 19.50746,-2.56323 23.41409,-4.78237c1.47101,-0.83578 3.18865,-1.51905 3.81711,-1.51905c1.83344,0 11.32239,-6.5527 16.55668,-11.4333c2.65032,-2.47097 8.39164,-8.83643 12.7596,-14.14523c4.36733,-5.3088 9.64544,-11.60697 11.72864,-13.99599c15.91257,-18.2465 33.06328,-29.26301 56.66078,-36.39586c7.79009,-2.35483 10.2376,-2.62292 24.251,-2.6582c13.4469,-0.03365 16.60238,0.26539 22.99282,2.18007c14.732,4.41442 25.57115,12.60827 31.91464,24.1257c4.09504,7.43352 4.09692,7.44654 4.09692,20.46891c0,12.11658 -0.20907,13.418 -2.98396,18.54988c-5.55416,10.2719 -18.4089,19.5311 -29.30313,21.10497l-0.00313,0zm-229.67151,490.45927c1.35521,7.05145 1.04285,14.56095 -0.80123,19.25323c-6.70217,17.05254 -36.10608,22.68914 -45.9944,8.81743c-2.5727,-3.60903 -2.7824,-4.42256 -1.14175,-4.42256c0.62721,0 1.59808,1.04309 2.15769,2.31846c1.75207,3.99544 8.43295,7.62238 14.87284,8.07338c7.45395,0.52209 17.35603,-2.59036 21.3578,-6.71388c14.94045,-15.39347 8.791,-38.47662 -13.06006,-49.01988c-5.34508,-2.57897 -8.29399,-3.24324 -18.27745,-4.11864c-9.06768,-0.79507 -13.11953,-0.76414 -17.00612,0.13134c-20.50337,4.72376 -36.35021,20.0901 -39.28346,38.09509c-1.63251,10.01954 -0.49451,21.98145 2.89319,30.41464c6.84677,17.0406 17.38483,27.72713 42.42266,43.01912c18.2931,11.17226 32.35282,23.08478 39.33542,33.329c5.99421,8.79301 11.26731,20.35982 11.89452,26.08814c1.26945,11.601 1.41592,15.44394 0.58966,15.44394c-0.49576,0 -1.25568,-3.6899 -1.68884,-8.20037c-0.89638,-9.33247 -2.95642,-16.91306 -5.51597,-20.30012c-0.96398,-1.27537 -1.75207,-2.76457 -1.75207,-3.30945c0,-1.5896 -7.55786,-9.81657 -13.18713,-14.35472c-2.85,-2.29784 -10.1919,-7.27559 -16.31506,-11.06263c-6.12315,-3.7865 -13.38744,-8.36264 -16.14292,-10.16879c-21.04545,-13.79627 -33.75184,-28.66602 -41.97885,-49.12462c-2.71605,-6.75405 -3.02527,-8.87605 -3.06596,-21.02573c-0.03881,-11.65853 0.3061,-14.39434 2.51449,-19.93488c5.09157,-12.77272 14.54234,-22.17085 27.82649,-27.67015c8.57379,-3.55096 8.58882,-3.55205 23.60876,-3.55205c13.97522,0 15.47627,0.18127 21.39536,2.58711c11.84757,4.81548 22.5271,15.9606 24.34239,25.40596l0,0.00163zm565.69388,199.12683c8.13312,-1.17497 16.79455,-0.90416 22.20661,0.69467c19.66833,5.81081 26.16957,31.30414 10.17,39.87736c-4.16264,2.23054 -5.10096,2.41235 -5.10096,0.98991c0,-0.5438 1.2031,-1.38554 2.67411,-1.87073c4.60833,-1.51905 8.79163,-7.31141 9.3118,-12.89483c0.60217,-6.46261 -2.98771,-15.04776 -7.74377,-18.51732c-17.75477,-12.95344 -44.37879,-7.62184 -56.53934,11.32313c-2.97457,4.63421 -3.74075,7.19093 -4.75042,15.84663c-0.91703,7.86172 -0.88135,11.37469 0.15148,14.74439c5.44837,17.77652 23.17184,31.5158 43.93874,34.05895c11.5565,1.41539 25.35332,0.42874 35.08013,-2.50841c19.65456,-5.93618 31.98037,-15.07273 49.61809,-36.78065c12.88604,-15.8602 26.6259,-28.05005 38.44154,-34.10345c10.14183,-5.19701 23.48294,-9.76881 30.08997,-10.3126c13.38055,-1.10062 17.81298,-1.22761 17.81298,-0.51123c0,0.42983 -4.25591,1.08868 -9.45828,1.46424c-10.76403,0.77716 -19.50746,2.56323 -23.41409,4.78237c-1.47101,0.83578 -3.18865,1.51905 -3.81711,1.51905c-1.83344,0 -11.32239,6.5527 -16.55668,11.43385c-2.65032,2.47097 -8.39164,8.83643 -12.7596,14.14523c-4.36733,5.3088 -9.64544,11.60697 -11.72864,13.99599c-15.91257,18.2465 -33.06328,29.26301 -56.66015,36.39586c-7.79009,2.35483 -10.2376,2.62292 -24.251,2.6582c-13.4469,0.03365 -16.60238,-0.26539 -22.99282,-2.18007c-14.732,-4.41442 -25.57178,-12.60827 -31.91464,-24.1257c-4.09567,-7.43352 -4.09692,-7.44654 -4.09692,-20.46891c0,-12.11658 0.20907,-13.418 2.98396,-18.54988c5.55416,-10.2719 18.4089,-19.5311 29.30313,-21.10497l0.00188,-0.00109zm48.97397,-695.6916c-1.8372,-0.54705 -3.96609,-1.13861 -4.73164,-1.31499c-2.70666,-0.62358 -1.34644,-2.31141 1.86286,-2.31141c4.21898,0 9.83886,-4.11538 12.4654,-9.13004c6.28841,-12.00207 -2.58772,-28.38273 -20.53717,-37.90026c-6.67901,-3.54174 -7.17039,-3.64431 -17.4493,-3.64431c-11.43882,0 -13.40622,0.62683 -20.90461,6.66287c-6.2352,5.01845 -8.11434,15.11126 -4.07876,21.90981c0.82001,1.3812 3.28692,3.87876 5.4828,5.55031c3.55421,2.70542 4.74479,3.03918 10.85605,3.03918c4.92757,0 6.52314,0.29469 5.65744,1.04581c-1.58306,1.37252 -10.03917,1.3291 -14.26691,-0.07327c-4.46498,-1.48052 -7.04645,-3.62206 -9.60475,-7.96755c-6.67087,-11.33236 -1.70324,-24.11702 11.64226,-29.96256c15.79489,-6.91849 30.26336,-3.48367 48.19089,11.43982c13.13205,10.9313 20.64796,14.90015 28.21897,14.90015c4.77233,0 10.9224,-1.60317 13.48571,-3.51514c2.53139,-1.88864 3.2525,-1.63356 3.2525,1.15001c0,6.60806 -6.17761,11.05232 -15.36422,11.05232c-4.43056,0 -6.35288,-0.58884 -10.23823,-3.13687c-9.93338,-6.51362 -9.24357,-6.38446 -6.70905,-1.25909c4.36858,8.83589 2.13202,18.09726 -5.42709,22.47531c-4.05873,2.3494 -6.53629,2.55726 -11.80313,0.98991l0,0zm-621.70991,162.77113c-0.63097,1.59286 -1.31327,3.43862 -1.5167,4.10236c-0.71923,2.34668 -2.66597,1.16737 -2.66597,-1.61511c0,-3.65788 -4.74667,-8.5298 -10.53055,-10.80756c-13.84314,-5.45208 -32.73653,2.24357 -43.71402,17.80582c-4.08502,5.79073 -4.20333,6.21676 -4.20333,15.12863c0,9.91751 0.72299,11.62325 7.68493,18.12439c5.78827,5.40595 17.42927,7.03517 25.27069,3.53631c1.59307,-0.71095 4.47375,-2.84978 6.40171,-4.75361c3.12042,-3.08152 3.50538,-4.11375 3.50538,-9.41225c0,-4.27223 0.3399,-5.6556 1.20623,-4.90503c1.58306,1.37252 1.53298,8.70401 -0.0845,12.36948c-1.70762,3.87116 -4.17767,6.1093 -9.18974,8.32737c-13.0707,5.78368 -27.81647,1.47672 -34.55871,-10.09389c-7.97976,-13.69424 -4.01805,-26.23847 13.19464,-41.78173c12.60812,-11.38555 17.18577,-17.90188 17.18577,-24.46598c0,-4.13763 -1.84909,-9.46977 -4.05435,-11.69218c-2.17835,-2.19473 -1.88414,-2.81993 1.32641,-2.81993c7.62171,0 12.7477,5.35602 12.7477,13.32085c0,3.84131 -0.67917,5.50798 -3.61806,8.87659c-7.51279,8.61229 -7.36381,8.01422 -1.45223,5.81678c10.19128,-3.78758 20.87331,-1.84848 25.92294,4.70531c2.70979,3.51894 2.94953,5.66699 1.14175,10.23337l0,0zm187.73961,539.02598c1.8372,0.54705 3.96609,1.13861 4.73164,1.31499c2.70666,0.62358 1.34644,2.31141 -1.86286,2.31141c-4.21898,0 -9.83824,4.11538 -12.4654,9.13004c-6.28841,12.00207 2.58772,28.38273 20.53717,37.90026c6.67901,3.54174 7.17039,3.64431 17.4493,3.64431c11.43882,0 13.40622,-0.62683 20.90461,-6.66287c6.2352,-5.01845 8.11434,-15.11126 4.07876,-21.90981c-0.82001,-1.3812 -3.28692,-3.87876 -5.4828,-5.55031c-3.55421,-2.70542 -4.74479,-3.03918 -10.85605,-3.03918c-4.92757,0 -6.52314,-0.29469 -5.65744,-1.04581c1.58306,-1.37252 10.03917,-1.3291 14.26691,0.07327c4.46498,1.48106 7.04645,3.62206 9.60475,7.96755c6.67087,11.33236 1.70324,24.11702 -11.64226,29.96256c-15.79489,6.91849 -30.26336,3.48367 -48.19089,-11.43982c-13.13205,-10.9313 -20.64796,-14.90015 -28.21897,-14.90015c-4.77233,0 -10.9224,1.60317 -13.48571,3.51514c-2.53139,1.88864 -3.2525,1.63356 -3.2525,-1.15001c0,-6.60806 6.17761,-11.05232 15.36422,-11.05232c4.43056,0 6.35288,0.58884 10.23823,3.13687c9.93338,6.51362 9.24357,6.38446 6.70905,1.25909c-4.36858,-8.83589 -2.13202,-18.09726 5.42709,-22.47531c4.05873,-2.34994 6.53629,-2.5578 11.80313,-0.98991l0,0zm621.71054,-162.77167c0.63097,-1.59286 1.31327,-3.43862 1.5167,-4.10236c0.71923,-2.34668 2.66597,-1.16737 2.66597,1.61511c0,3.65788 4.74667,8.53034 10.53055,10.80756c13.84314,5.45208 32.73653,-2.24357 43.71402,-17.80582c4.08502,-5.79073 4.20333,-6.21676 4.20333,-15.12863c0,-9.91751 -0.72299,-11.62325 -7.68493,-18.12439c-5.78827,-5.40595 -17.42927,-7.03517 -25.27069,-3.53631c-1.59307,0.71095 -4.47375,2.84978 -6.40171,4.75361c-3.12042,3.08152 -3.50538,4.11375 -3.50538,9.41225c0,4.27223 -0.3399,5.6556 -1.20623,4.90503c-1.58306,-1.37252 -1.53298,-8.70401 0.0845,-12.36948c1.70825,-3.87116 4.17767,-6.1093 9.18974,-8.32737c13.0707,-5.78368 27.81647,-1.47672 34.55871,10.09389c7.97976,13.69424 4.01805,26.23847 -13.19464,41.78173c-12.60812,11.38555 -17.18577,17.90188 -17.18577,24.46598c0,4.13763 1.84909,9.46977 4.05435,11.69218c2.17835,2.19473 1.88414,2.81993 -1.32641,2.81993c-7.62171,0 -12.7477,-5.35602 -12.7477,-13.32085c0,-3.84131 0.67917,-5.50798 3.61806,-8.87659c7.51279,-8.61229 7.36381,-8.01422 1.45223,-5.81678c-10.19128,3.78758 -20.87331,1.84848 -25.92294,-4.70531c-2.71041,-3.51894 -2.95016,-5.66699 -1.14175,-10.23337l0,0zm0,-376.25431c-1.8084,-4.56583 -1.56803,-6.71388 1.14363,-10.23337c5.04963,-6.55378 15.73166,-8.49235 25.92294,-4.70531c5.91158,2.1969 6.06056,2.79551 -1.45223,-5.81678c-2.93889,-3.36861 -3.61806,-5.03528 -3.61806,-8.87659c0,-7.96429 5.126,-13.32085 12.7477,-13.32085c3.21056,0 3.50413,0.6252 1.32641,2.81993c-2.20526,2.2224 -4.05435,7.55454 -4.05435,11.69218c0,6.5641 4.57703,13.08043 17.18577,24.46598c17.21269,15.54326 21.1744,28.08804 13.19464,41.78173c-6.74223,11.57007 -21.488,15.87703 -34.55871,10.09389c-5.01145,-2.21752 -7.48149,-4.4562 -9.18974,-8.32737c-1.61748,-3.66547 -1.66694,-10.99696 -0.0845,-12.36948c0.8657,-0.75057 1.20623,0.6328 1.20623,4.90503c0,5.29795 0.38434,6.33073 3.50538,9.41225c1.92734,1.90383 4.80864,4.04266 6.40171,4.75361c7.84142,3.49886 19.4818,1.86964 25.27069,-3.53631c6.96194,-6.50168 7.68493,-8.20688 7.68493,-18.12439c0,-8.91187 -0.11831,-9.33735 -4.20333,-15.12863c-10.97749,-15.5628 -29.87088,-23.2579 -43.71402,-17.80582c-5.78388,2.27776 -10.53055,7.14968 -10.53055,10.80756c0,2.78248 -1.94674,3.96179 -2.66597,1.61511c-0.20594,-0.66374 -0.88824,-2.5095 -1.51858,-4.10236l0,0zm-621.71054,-162.77113c-5.26621,1.56789 -7.74377,1.36004 -11.80313,-0.99153c-7.55911,-4.37805 -9.79504,-13.63943 -5.42709,-22.47531c2.53389,-5.12537 3.22433,-5.25453 -6.70905,1.25909c-3.88534,2.54803 -5.80767,3.13687 -10.23823,3.13687c-9.18598,0 -15.36422,-4.44426 -15.36422,-11.05232c0,-2.78357 0.72111,-3.03864 3.2525,-1.15001c2.56331,1.91197 8.71338,3.51514 13.48571,3.51514c7.571,0 15.08692,-3.96831 28.21897,-14.90015c17.92754,-14.92348 32.39663,-18.3583 48.19089,-11.43982c13.34487,5.84555 18.3125,18.6302 11.64226,29.96256c-2.55768,4.34495 -5.13977,6.48649 -9.60475,7.96755c-4.22774,1.40237 -12.68386,1.44524 -14.26691,0.07327c-0.8657,-0.75057 0.72987,-1.04581 5.65744,-1.04581c6.11064,0 7.30184,-0.33322 10.85605,-3.03918c2.19587,-1.67155 4.66279,-4.16911 5.4828,-5.55031c4.03557,-6.79855 2.15644,-16.89081 -4.07876,-21.90981c-7.49902,-6.03604 -9.46579,-6.66287 -20.90461,-6.66287c-10.27891,0 -10.76967,0.10257 -17.4493,3.64431c-17.95007,9.51753 -26.82558,25.89819 -20.53717,37.90026c2.62716,5.01465 8.24642,9.13004 12.4654,9.13004c3.2093,0 4.56952,1.68838 1.86286,2.31141c-0.76555,0.17801 -2.89445,0.76956 -4.73164,1.31662l0,0zm-187.73961,539.02598c1.8084,4.56583 1.56866,6.71388 -1.14363,10.23337c-5.04963,6.55378 -15.73166,8.49235 -25.92294,4.70531c-5.91158,-2.1969 -6.06056,-2.79551 1.45223,5.81678c2.93889,3.36861 3.61806,5.03528 3.61806,8.87659c0,7.96429 -5.126,13.32085 -12.7477,13.32085c-3.21056,0 -3.50476,-0.62466 -1.32641,-2.81993c2.20526,-2.2224 4.05435,-7.55454 4.05435,-11.69218c0,-6.5641 -4.57703,-13.08043 -17.18577,-24.46598c-17.21269,-15.5438 -21.1744,-28.08804 -13.19464,-41.78173c6.74223,-11.57061 21.488,-15.87703 34.55871,-10.09389c5.01145,2.21752 7.48149,4.4562 9.18974,8.32737c1.61748,3.66547 1.66694,10.99696 0.0845,12.36948c-0.8657,0.75057 -1.20623,-0.6328 -1.20623,-4.90503c0,-5.29795 -0.38434,-6.33073 -3.50538,-9.41225c-1.92796,-1.90383 -4.80864,-4.04266 -6.40171,-4.75361c-7.84142,-3.49886 -19.4818,-1.86964 -25.27069,3.53631c-6.96194,6.50168 -7.68493,8.20688 -7.68493,18.12439c0,8.91187 0.11831,9.33789 4.20333,15.12863c10.97749,15.5628 29.87088,23.2579 43.71402,17.80582c5.78388,-2.27776 10.53055,-7.14968 10.53055,-10.80756c0,-2.78248 1.94737,-3.96179 2.66597,-1.61511c0.20532,0.66319 0.88761,2.5095 1.51858,4.10236l0,0zm621.71054,162.77113c5.26621,-1.56789 7.74377,-1.35949 11.80313,0.99153c7.55911,4.37805 9.79504,13.63943 5.42709,22.47531c-2.53389,5.12537 -3.22433,5.25453 6.70905,-1.25909c3.88534,-2.54803 5.80767,-3.13687 10.23823,-3.13687c9.18598,0 15.36422,4.44426 15.36422,11.05232c0,2.78357 -0.72048,3.0381 -3.2525,1.15001c-2.56331,-1.91197 -8.71338,-3.51514 -13.48571,-3.51514c-7.571,0 -15.08692,3.96831 -28.21897,14.90015c-17.92816,14.92348 -32.39663,18.3583 -48.19089,11.43982c-13.3455,-5.84555 -18.3125,-18.6302 -11.64226,-29.96256c2.55768,-4.34495 5.13977,-6.48649 9.60475,-7.96755c4.22774,-1.40237 12.68386,-1.44524 14.26691,-0.07327c0.8657,0.75057 -0.72987,1.04581 -5.65744,1.04581c-6.11064,0 -7.30184,0.33322 -10.85605,3.03918c-2.19587,1.67101 -4.66279,4.16911 -5.4828,5.55031c-4.03557,6.79855 -2.15644,16.89081 4.07876,21.90981c7.49902,6.03604 9.46579,6.66287 20.90461,6.66287c10.27891,0 10.77029,-0.10257 17.4493,-3.64431c17.95007,-9.51753 26.82558,-25.89819 20.53717,-37.90026c-2.62716,-5.01465 -8.24642,-9.13004 -12.4654,-9.13004c-3.2093,0 -4.56952,-1.68783 -1.86286,-2.31141c0.76492,-0.17855 2.89445,-0.77011 4.73164,-1.31662l0,0zm11.48764,-710.57818c3.08536,-4.00195 4.99455,-15.11506 2.59711,-15.11506c-0.66665,0 -0.9258,0.64637 -0.57651,1.43656c1.47226,3.32682 -2.05503,11.29111 -6.97071,15.73918c-2.67724,2.42266 -4.8681,4.56909 -4.8681,4.76935c0,1.39368 7.50027,-3.82395 9.81821,-6.83002l0,0zm-643.32624,161.59236c-4.61584,-2.67503 -17.43365,-4.3303 -17.43365,-2.25171c0,0.57799 0.74552,0.80267 1.65692,0.49984c3.83714,-1.27646 13.02313,1.78172 18.15351,6.04364c2.79429,2.32118 5.26997,4.22067 5.50095,4.22067c1.60747,0 -4.41052,-6.50277 -7.87772,-8.51243l0,0zm186.38002,557.76689c-3.08536,4.0025 -4.99455,15.11506 -2.59711,15.11506c0.66665,0 0.9258,-0.64637 0.57651,-1.43656c-1.47226,-3.32682 2.05503,-11.29111 6.97071,-15.73918c2.67724,-2.42266 4.8681,-4.56909 4.8681,-4.76935c0,-1.39423 -7.50027,3.8234 -9.81821,6.83002l0,0zm643.32624,-161.59236c4.61647,2.67503 17.43365,4.3303 17.43365,2.25171c0,-0.57799 -0.74552,-0.80267 -1.65692,-0.49984c-3.83714,1.27646 -13.02313,-1.78172 -18.15351,-6.04364c-2.79429,-2.32118 -5.26997,-4.22067 -5.50095,-4.22067c-1.60809,0 4.4099,6.50277 7.87772,8.51243l0,0zm0,-396.17454c-3.46783,2.00966 -9.48582,8.51243 -7.87772,8.51243c0.23098,0 2.70666,-1.89949 5.50095,-4.22067c5.13038,-4.26191 14.31636,-7.32009 18.15351,-6.04364c0.9114,0.30338 1.65692,0.07815 1.65692,-0.49984c0,-2.07859 -12.81781,-0.42331 -17.43365,2.25171l0,0zm-643.32624,-161.5929c2.31794,3.00662 9.81821,8.22425 9.81821,6.83002c0,-0.20026 -2.19087,-2.34668 -4.8681,-4.76935c-4.91568,-4.44806 -8.44297,-12.41236 -6.97071,-15.73918c0.34991,-0.79019 0.09014,-1.43656 -0.57651,-1.43656c-2.39743,0 -0.48825,11.1131 2.59711,15.11506l0,0zm-186.38065,557.76744c3.46783,-2.00966 9.48582,-8.51243 7.87772,-8.51243c-0.23098,0 -2.70666,1.89949 -5.50095,4.22067c-5.13038,4.26191 -14.31636,7.32009 -18.15351,6.04364c-0.9114,-0.30338 -1.65692,-0.07815 -1.65692,0.49984c0,2.07859 12.81781,0.42277 17.43365,-2.25171l0,0zm643.32687,161.59236c-2.31794,-3.00662 -9.81821,-8.22425 -9.81821,-6.83002c0,0.20026 2.19087,2.34668 4.8681,4.76935c4.91568,4.44806 8.44297,12.41236 6.97071,15.73918c-0.34991,0.79019 -0.09014,1.43656 0.57651,1.43656c2.39743,0 0.48762,-11.1131 -2.59711,-15.11506l0,0zm29.98355,-736.39443c4.83054,-2.55346 4.58079,-3.15641 -0.53958,-1.30142c-4.82554,1.74807 -12.78338,1.26506 -18.04835,-1.09519c-1.86975,-0.83849 -3.3996,-1.27591 -3.3996,-0.97254c0,1.12558 11.80688,5.27027 15.02933,5.27624c1.83657,0.00271 4.96763,-0.85531 6.95819,-1.90709l0,0zm-692.9581,152.63165c-2.94515,-4.1881 -3.64059,-3.97156 -1.50106,0.46782c2.01622,4.18376 1.45912,11.08325 -1.26319,15.648c-0.96711,1.62108 -1.47164,2.94747 -1.12172,2.94747c1.29824,0 6.07871,-10.23662 6.0856,-13.0305c0.00313,-1.59286 -0.98652,-4.3075 -2.19963,-6.03278l0,0zm176.04477,600.79795c-4.83054,2.55346 -4.58079,3.15641 0.53958,1.30142c4.82554,-1.74807 12.78338,-1.26506 18.04835,1.09519c1.86975,0.83849 3.3996,1.27591 3.3996,0.97254c0,-1.12558 -11.80688,-5.27027 -15.02933,-5.27624c-1.8372,-0.00271 -4.96826,0.85477 -6.95819,1.90709l0,0zm692.9581,-152.63165c2.94515,4.1881 3.64059,3.97156 1.50106,-0.46782c-2.01622,-4.18376 -1.45912,-11.08325 1.26319,-15.648c0.96711,-1.62108 1.47164,-2.94747 1.12172,-2.94747c-1.29824,0 -6.07871,10.23662 -6.0856,13.0305c-0.00313,1.59232 0.98589,4.30696 2.19963,6.03278l0,0zm0,-448.1663c-1.21311,1.72528 -2.20276,4.43992 -2.19963,6.03278c0.00626,2.79442 4.78673,13.0305 6.0856,13.0305c0.34991,0 -0.15461,-1.32639 -1.12172,-2.94747c-2.72231,-4.56475 -3.27941,-11.46424 -1.26319,-15.648c2.13954,-4.43938 1.44409,-4.65592 -1.50106,-0.46782l0,0zm-692.9581,-152.63165c1.98993,1.05177 5.12099,1.9098 6.95819,1.90709c3.22308,-0.00597 15.02933,-4.15012 15.02933,-5.27624c0,-0.30338 -1.52985,0.13405 -3.3996,0.97254c-5.26496,2.36025 -13.22281,2.84327 -18.04835,1.09519c-5.12036,-1.85499 -5.37012,-1.25258 -0.53958,1.30142l0,0zm-176.04477,600.79741c1.21311,-1.72528 2.20276,-4.43992 2.19963,-6.03278c-0.00689,-2.79442 -4.78673,-13.0305 -6.0856,-13.0305c-0.34991,0 0.15461,1.32639 1.12172,2.94747c2.72231,4.56475 3.27941,11.46424 1.26319,15.648c-2.13954,4.43938 -1.44472,4.65646 1.50106,0.46782l0,0zm692.95747,152.63219c-1.98993,-1.05177 -5.12099,-1.9098 -6.95819,-1.90709c-3.22308,0.00543 -15.02933,4.15012 -15.02933,5.27624c0,0.30338 1.52985,-0.13405 3.3996,-0.97254c5.26496,-2.36025 13.22281,-2.84327 18.04835,-1.09519c5.12036,1.85499 5.37075,1.25204 0.53958,-1.30142l0,0z" id="path4147"/>
   <path stroke="null" fill="none" d="m582.08355,829.99115c8.42869,0 25.28607,-2.70264 42.14363,-5.4054l16.85738,0" id="svg_1"/>
  </g>
 </g>
</svg>