<svg width="1000.098" height="330.098" xmlns="http://www.w3.org/2000/svg" xml:space="preserve" enable-background="new 0 0 1650.098 1650.098" version="1.1">

 <g>
  <title>Layer 1</title>
  <g stroke="null" id="svg_2">
   <path stroke="null" d="m890.62553,-444.18224l-8.95627,-3.77402l-3.34978,2.45034c-4.26807,3.12222 -8.12787,3.11571 -11.46954,-0.01954c-2.24796,-2.10898 -2.94963,-2.29838 -4.79619,-1.29545c-3.80612,2.06665 -5.96044,0.44774 -5.57465,-4.18919c0.28092,-3.37838 0.77408,-4.16423 2.76485,-4.41062c1.55254,-0.19212 2.86473,0.41735 3.65317,1.69814c1.21356,1.97167 1.2635,1.96407 3.78552,-0.58504c3.76429,-3.80495 8.96563,-3.55585 12.88224,0.61652l3.00394,3.19928l7.11095,-1.98198c4.76436,-1.32802 10.79284,-3.23836 16.42992,-5.16987c-2.22174,4.90069 -4.41914,10.14165 -5.94671,14.28362l-2.2798,6.18203l3.68002,2.61153c4.79932,3.40551 5.08585,7.92684 0.70916,11.1994c-2.93215,2.19255 -2.94089,2.23543 -0.67295,3.291c1.47263,0.68544 2.1743,1.82568 1.95331,3.17595c-0.28341,1.73071 -1.18797,2.15945 -5.07337,2.40367c-5.33368,0.3354 -7.19523,-1.5375 -4.81867,-4.84641c1.15363,-1.60534 0.93514,-2.21535 -1.49011,-4.16965c-3.60573,-2.90513 -3.61322,-6.26126 -0.02247,-9.97124l2.81854,-2.91219l-4.34111,-7.78628zm0,686.10786l4.34111,-7.78628l-2.81854,-2.91219c-3.59075,-3.71052 -3.58326,-7.0661 0.02247,-9.97124c2.42525,-1.9543 2.64374,-2.56431 1.49011,-4.16965c-2.37718,-3.30891 -0.51502,-5.18181 4.81867,-4.84641c3.8854,0.24422 4.78995,0.67296 5.07337,2.40367c0.22099,1.34972 -0.48006,2.4905 -1.95331,3.17595c-2.26794,1.05503 -2.2592,1.09845 0.67295,3.291c4.37669,3.27255 4.09016,7.79442 -0.70916,11.1994l-3.68002,2.61153l2.2798,6.18203c1.52757,4.14197 3.72496,9.38294 5.94671,14.28362c-5.63707,-1.93151 -11.66556,-3.84185 -16.42992,-5.16987l-7.11095,-1.98198l-3.00394,3.19928c-3.91724,4.17237 -9.11795,4.42147 -12.88224,0.61652c-2.52201,-2.54912 -2.57133,-2.55671 -3.78552,-0.58504c-0.78844,1.28026 -2.10001,1.89026 -3.65317,1.69814c-1.99077,-0.24639 -2.48393,-1.03278 -2.76485,-4.41062c-0.38579,-4.63693 1.76853,-6.25529 5.57465,-4.18919c1.84656,1.00293 2.54823,0.81298 4.79619,-1.29545c3.34167,-3.1347 7.2021,-3.14121 11.46954,-0.01954l3.34978,2.45034l8.95627,-3.77402zm-789.20412,0l8.95627,3.77402l3.34978,-2.45034c4.26807,-3.12168 8.12787,-3.11516 11.46954,0.01954c2.24796,2.10843 2.94963,2.29838 4.79619,1.29545c3.80612,-2.06665 5.96044,-0.44774 5.57465,4.18919c-0.28092,3.37784 -0.77408,4.16423 -2.76485,4.41062c-1.55254,0.19212 -2.86473,-0.41735 -3.65317,-1.69814c-1.21419,-1.97167 -1.2635,-1.96407 -3.78552,0.58504c-3.76429,3.80495 -8.96563,3.55585 -12.88224,-0.61652l-3.00394,-3.19928l-7.11095,1.98198c-4.76436,1.32802 -10.79284,3.23836 -16.42992,5.16987c2.22174,-4.90069 4.41914,-10.14165 5.94671,-14.28362l2.2798,-6.18203l-3.68002,-2.61153c-4.79932,-3.40551 -5.08585,-7.92684 -0.70916,-11.1994c2.93215,-2.19255 2.94089,-2.23543 0.67295,-3.291c-1.47263,-0.68544 -2.1743,-1.82568 -1.95331,-3.17595c0.28341,-1.73071 1.18797,-2.15945 5.07337,-2.40367c5.33368,-0.3354 7.19523,1.5375 4.81867,4.84641c-1.15363,1.60534 -0.93514,2.21535 1.49011,4.16965c3.60573,2.90513 3.61322,6.26126 0.02247,9.97124l-2.81854,2.91219l4.34111,7.78628zm0,-686.10786l-4.34111,7.78628l2.81854,2.91219c3.59137,3.71052 3.58388,7.0661 -0.02247,9.97124c-2.42588,1.9543 -2.64374,2.56431 -1.49011,4.16965c2.37718,3.30891 0.51502,5.18181 -4.81867,4.84641c-3.88602,-0.24422 -4.78995,-0.67296 -5.07337,-2.40367c-0.22099,-1.34972 0.48006,-2.4905 1.95331,-3.17595c2.26794,-1.05557 2.2592,-1.09845 -0.67295,-3.291c-4.37669,-3.27255 -4.09016,-7.79442 0.70916,-11.1994l3.68002,-2.61153l-2.2798,-6.18203c-1.52757,-4.14197 -3.72496,-9.38294 -5.94671,-14.28362c5.63707,1.93151 11.66556,3.84185 16.42992,5.16987l7.11095,1.98198l3.00394,-3.19928c3.91724,-4.17237 9.11795,-4.42147 12.88224,-0.61652c2.52201,2.54912 2.57133,2.55671 3.78552,0.58504c0.78844,-1.28026 2.10001,-1.89026 3.65317,-1.69814c1.99077,0.24639 2.48393,1.03278 2.76485,4.41062c0.38579,4.63693 -1.76853,6.25529 -5.57465,4.18919c-1.84656,-1.00293 -2.54823,-0.81298 -4.79619,1.29545c-3.34167,3.1347 -7.2021,3.14121 -11.46954,0.01954l-3.34978,-2.45034l-8.95627,3.77402zm795.67832,-5.62846c-0.03746,0.01031 -0.07491,0.02008 -0.11237,0.02985c-2.33099,0.62086 -3.94782,1.3812 -3.59262,1.68946c0.07616,0.06621 0.45196,0.26267 1.07623,0.56605c0.34896,0.54217 0.57494,0.86942 0.6511,0.93563c0.35458,0.30826 1.22917,-1.09682 1.94332,-3.1233c0.01124,-0.03256 0.0231,-0.06513 0.03433,-0.09769zm0,697.36478c-0.01186,-0.03256 -0.0231,-0.06513 -0.03433,-0.09769c-0.71415,-2.02648 -1.58874,-3.43211 -1.94332,-3.1233c-0.07616,0.06621 -0.30214,0.39292 -0.6511,0.93563c-0.62364,0.30338 -1.00007,0.49984 -1.07623,0.56605c-0.35458,0.30826 1.26163,1.0686 3.59262,1.68946c0.03746,0.00977 0.07491,0.02008 0.11237,0.02985zm-802.15253,0c0.03746,-0.01031 0.07491,-0.02008 0.11237,-0.02985c2.33099,-0.62086 3.94782,-1.3812 3.59262,-1.68946c-0.07616,-0.06621 -0.45259,-0.26267 -1.07623,-0.56605c-0.34896,-0.54217 -0.57494,-0.86942 -0.6511,-0.93563c-0.35458,-0.30826 -1.22917,1.09682 -1.94332,3.1233c-0.01124,0.03256 -0.02247,0.06513 -0.03433,0.09769zm0,-697.36478c0.01186,0.03256 0.0231,0.06513 0.03433,0.09769c0.71415,2.02648 1.58874,3.43211 1.94332,3.1233c0.07616,-0.06621 0.30214,-0.39347 0.6511,-0.93563c0.62364,-0.30338 1.00007,-0.49984 1.07623,-0.56605c0.35458,-0.30826 -1.26163,-1.0686 -3.59262,-1.68946c-0.03746,-0.00977 -0.07491,-0.01954 -0.11237,-0.02985zm781.68926,2.31195c2.23048,-1.93911 2.19365,-2.6137 -0.28841,-5.27841c-2.67808,-2.87529 -7.60412,-2.0102 -8.62166,1.51362c-1.31781,4.56583 4.94539,7.21209 8.91007,3.76479l0,0zm-779.02991,15.47813c-2.23048,-1.93911 -3.00644,-1.90709 -6.07156,0.25073c-3.30733,2.32823 -2.31226,6.61077 1.74106,7.49485c5.25191,1.14621 8.2958,-4.29828 4.3305,-7.74558l0,0zm17.80392,677.26275c-2.23048,1.93911 -2.19365,2.6137 0.28841,5.27841c2.67808,2.87529 7.60412,2.0102 8.62104,-1.51362c1.31844,-4.56529 -4.94414,-7.21155 -8.90945,-3.76479l0,0zm779.02991,-15.47813c2.23048,1.93911 3.00644,1.90709 6.07156,-0.25073c3.30733,-2.32823 2.31226,-6.61077 -1.74106,-7.49539c-5.25128,-1.14566 -8.29518,4.29936 -4.3305,7.74612l0,0zm0,-661.78462c-3.9653,3.4473 -0.92078,8.89179 4.3305,7.74612c4.05332,-0.88408 5.0484,-5.16716 1.74106,-7.49485c-3.06512,-2.15836 -3.84108,-2.19038 -6.07156,-0.25128l0,0zm-779.02991,-15.47813c3.9653,3.4473 10.22789,0.80104 8.91007,-3.76479c-1.01692,-3.52383 -5.94359,-4.38891 -8.62104,-1.51362c-2.48268,2.66471 -2.51952,3.3393 -0.28903,5.27841l0,0zm-17.80392,677.26275c3.9653,-3.4473 0.92141,-8.89179 -4.3305,-7.74612c-4.05332,0.88462 -5.0484,5.16716 -1.74106,7.49539c3.06512,2.15782 3.84108,2.18984 6.07156,0.25073l0,0zm779.02991,15.47813c-3.9653,-3.4473 -10.22789,-0.8005 -8.91007,3.76479c1.01754,3.52383 5.94359,4.38891 8.62166,1.51362c2.48206,-2.66471 2.51889,-3.3393 0.28841,-5.27841l0,0zm-14.61706,-694.69681c1.0806,-0.93943 -0.40327,-3.28395 -2.07754,-3.28395c-0.85087,0 -1.54692,0.86888 -1.54692,1.93042c0,1.81754 2.16244,2.62455 3.62446,1.35352l0,0zm-766.66269,30.14166c-1.0806,-0.93943 -3.7774,0.35059 -3.7774,1.80614c0,0.73972 0.99944,1.3443 2.2205,1.3443c2.09065,0.00054 3.01892,-1.87887 1.55691,-3.15044l0,0zm34.67082,666.51109c-1.0806,0.93943 0.40327,3.28395 2.07754,3.28395c0.85087,0 1.54629,-0.86888 1.54629,-1.93042c0.00062,-1.817 -2.16119,-2.62455 -3.62383,-1.35352l0,0zm766.66269,-30.14166c1.0806,0.93943 3.7774,-0.35059 3.7774,-1.80614c0,-0.73972 -0.99944,-1.34484 -2.2205,-1.34484c-2.09002,0 -3.01892,1.87995 -1.55691,3.15098l0,0zm0,-636.36943c-1.46202,1.27103 -0.53312,3.15098 1.55691,3.15098c1.22105,0 2.2205,-0.60512 2.2205,-1.3443c0,-1.4561 -2.69681,-2.74558 -3.7774,-1.80669l0,0zm-766.66269,-30.14166c1.46202,1.27103 3.62446,0.46348 3.62446,-1.35352c0,-1.06154 -0.69605,-1.93042 -1.54629,-1.93042c-1.67489,0 -3.15813,2.34451 -2.07816,3.28395l0,0zm-34.67082,666.51109c1.46202,-1.27103 0.53312,-3.15098 -1.55691,-3.15098c-1.22105,0 -2.2205,0.60512 -2.2205,1.34484c0,1.45555 2.69681,2.74558 3.7774,1.80614l0,0zm766.66269,30.14166c-1.46202,-1.27103 -3.62446,-0.46348 -3.62446,1.35352c0,1.06154 0.69605,1.93042 1.54692,1.93042c1.67427,0 3.15813,-2.34451 2.07754,-3.28395l0,0zm-117.97591,-687.41471c-0.91579,-0.46782 -2.96961,-1.08705 -4.56397,-1.37577c-2.59942,-0.47053 -2.97523,-1.09573 -3.64693,-6.061c-0.64361,-4.76338 -0.45259,-5.74243 1.3715,-7.01346c3.2961,-2.29676 3.94158,-6.43385 1.48012,-9.48931c-2.74675,-3.40986 -4.85862,-6.94888 -4.14759,-6.94888c0.31088,0 2.30852,2.25117 4.43974,5.00271c3.68002,4.75035 7.48176,6.71714 8.96126,4.63584c2.05569,-2.89102 12.82231,2.17736 14.00903,6.59449c0.38267,1.42353 1.04564,3.31488 1.47388,4.2033c0.49816,1.03387 -0.05119,2.33583 -1.52819,3.61934c-1.2685,1.10279 -2.30664,2.60339 -2.30664,3.33496c0,1.89189 -3.00269,3.81255 -4.94664,3.16401c-0.90393,-0.30175 -1.93958,-0.13296 -2.3004,0.37447c-0.80717,1.13861 -6.03723,1.11256 -8.29518,-0.0407l0,0zm-638.06061,123.46796c-0.53811,0.79616 -1.25039,2.58168 -1.5825,3.96776c-0.54123,2.25985 -1.26038,2.58711 -6.97174,3.17052c-5.47914,0.56008 -6.6053,0.39347 -8.06732,-1.19234c-2.64187,-2.86552 -7.40061,-3.42668 -10.9152,-1.28677c-3.92223,2.38793 -7.99303,4.22392 -7.99303,3.60578c0,-0.27027 2.58943,-2.00695 5.75444,-3.85976c5.46415,-3.19928 7.72647,-6.5044 5.33243,-7.79062c-3.32544,-1.78715 2.50453,-11.14729 7.58539,-12.17899c1.63744,-0.33268 3.81298,-0.90904 4.8349,-1.28134c1.18922,-0.43308 2.68682,0.0445 4.16319,1.32856c1.2685,1.10279 2.99458,2.00532 3.83608,2.00532c2.17617,0 4.38543,2.61044 3.63944,4.30045c-0.34709,0.78585 -0.15294,1.6862 0.43074,1.99989c1.3097,0.70227 1.27973,5.24911 -0.04682,7.21155l0,0zm142.02056,554.70926c0.91579,0.46782 2.96961,1.08705 4.56397,1.37577c2.59942,0.47053 2.97585,1.09573 3.64693,6.061c0.64424,4.76338 0.45259,5.74243 -1.3715,7.01346c-3.2961,2.29676 -3.94158,6.43385 -1.48012,9.48931c2.74675,3.4104 4.85862,6.94888 4.14759,6.94888c-0.31088,0 -2.30852,-2.25117 -4.43974,-5.00271c-3.68002,-4.75035 -7.48176,-6.71714 -8.96126,-4.63584c-2.05569,2.89157 -12.82231,-2.17736 -14.00903,-6.59449c-0.38267,-1.42353 -1.04564,-3.31542 -1.47388,-4.2033c-0.49816,-1.03387 0.05119,-2.33583 1.52819,-3.61934c1.2685,-1.10279 2.30664,-2.60339 2.30664,-3.33496c0,-1.89189 3.00269,-3.81255 4.94664,-3.16401c0.90393,0.30175 1.93958,0.13296 2.3004,-0.37447c0.80779,-1.13915 6.03785,-1.1131 8.29518,0.0407l0,0zm638.06123,-123.4685c0.53811,-0.79616 1.25039,-2.58168 1.5825,-3.96776c0.54123,-2.25985 1.26038,-2.58656 6.97174,-3.17052c5.47914,-0.55954 6.6053,-0.39347 8.06732,1.19234c2.64187,2.86552 7.40061,3.42668 10.9152,1.28677c3.92285,-2.38793 7.99303,-4.22392 7.99303,-3.60578c0,0.27027 -2.58943,2.00695 -5.75444,3.85976c-5.46415,3.19928 -7.72647,6.5044 -5.33243,7.79062c3.32606,1.78715 -2.50453,11.14729 -7.58539,12.17899c-1.63744,0.33268 -3.81361,0.90904 -4.8349,1.28134c-1.18922,0.43308 -2.68682,-0.0445 -4.16319,-1.32856c-1.2685,-1.10279 -2.99458,-2.00532 -3.83608,-2.00532c-2.17617,0 -4.38543,-2.61044 -3.63944,-4.30045c0.34709,-0.78585 0.15294,-1.6862 -0.43074,-1.99989c-1.31032,-0.70173 -1.28036,-5.24856 0.04682,-7.21155l0,0zm0,-431.24076c-1.32718,-1.96299 -1.35714,-6.50982 -0.04744,-7.21318c0.58368,-0.31369 0.77783,-1.2135 0.43074,-1.99989c-0.74599,-1.69 1.46327,-4.30045 3.63944,-4.30045c0.8415,0 2.56758,-0.90199 3.83608,-2.00532c1.47638,-1.28351 2.9746,-1.76164 4.16319,-1.32856c1.02129,0.3723 3.19684,0.94866 4.8349,1.28134c5.08148,1.03169 10.91145,10.39184 7.58539,12.17899c-2.39404,1.28623 -0.13172,4.59134 5.33243,7.79062c3.165,1.85282 5.75444,3.59004 5.75444,3.85976c0,0.61869 -4.07018,-1.21784 -7.99303,-3.60578c-3.51459,-2.13991 -8.27395,-1.57875 -10.9152,1.28677c-1.46202,1.5858 -2.58818,1.75242 -8.06732,1.19234c-5.71136,-0.58341 -6.43051,-0.91067 -6.97174,-3.17052c-0.33148,-1.38446 -1.04376,-3.16998 -1.58188,-3.96614l0,0zm-638.06123,-123.4685c-2.25795,1.1538 -7.48801,1.17985 -8.29705,0.04125c-0.36082,-0.50744 -1.39585,-0.67622 -2.3004,-0.37447c-1.94395,0.64854 -4.94664,-1.27212 -4.94664,-3.16401c0,-0.73158 -1.03752,-2.23217 -2.30664,-3.33496c-1.47638,-1.28351 -2.02635,-2.58602 -1.52819,-3.61934c0.42824,-0.88788 1.09121,-2.77923 1.47388,-4.2033c1.18672,-4.41767 11.95334,-9.48605 14.00903,-6.59449c1.4795,2.0813 5.28125,0.11451 8.96126,-4.63584c2.13123,-2.75155 4.12948,-5.00271 4.43974,-5.00271c0.71166,0 -1.40084,3.53848 -4.14759,6.94888c-2.46146,3.05547 -1.81597,7.1931 1.48012,9.48931c1.82409,1.27103 2.01574,2.25008 1.3715,7.01346c-0.67108,4.96473 -1.04751,5.59047 -3.64693,6.061c-1.59249,0.28872 -3.64631,0.90741 -4.5621,1.37523l0,0zm-142.02118,554.70926c1.32718,1.96299 1.35714,6.50982 0.04744,7.21318c-0.58368,0.31369 -0.77783,1.2135 -0.43074,1.99989c0.74599,1.69 -1.46327,4.30045 -3.63944,4.30045c-0.8415,0 -2.56758,0.90199 -3.83608,2.00532c-1.47638,1.28351 -2.9746,1.76164 -4.16319,1.32856c-1.02129,-0.3723 -3.19684,-0.94866 -4.8349,-1.28134c-5.08148,-1.03169 -10.91145,-10.39184 -7.58539,-12.17899c2.39404,-1.28623 0.13172,-4.59134 -5.33243,-7.79062c-3.165,-1.85282 -5.75444,-3.59004 -5.75444,-3.85976c0,-0.61869 4.07018,1.21784 7.99303,3.60578c3.51459,2.13991 8.27395,1.57875 10.9152,-1.28677c1.46202,-1.5858 2.58818,-1.75242 8.06732,-1.19234c5.71074,0.58341 6.43051,0.91067 6.97174,3.17052c0.33211,1.38446 1.04376,3.16998 1.58188,3.96614l0,0zm638.06123,123.4685c2.25795,-1.1538 7.48801,-1.17985 8.29705,-0.04125c0.36082,0.50744 1.39585,0.67622 2.3004,0.37447c1.94395,-0.64854 4.94664,1.27212 4.94664,3.16401c0,0.73158 1.03752,2.23217 2.30664,3.33496c1.47638,1.28351 2.02635,2.58602 1.52819,3.61934c-0.42824,0.88788 -1.09121,2.77923 -1.47388,4.2033c-1.18672,4.41767 -11.95334,9.48605 -14.00903,6.59449c-1.4795,-2.0813 -5.28125,-0.11451 -8.96126,4.63584c-2.13123,2.75155 -4.12948,5.00271 -4.43974,5.00271c-0.71166,0 1.40084,-3.53848 4.14759,-6.94888c2.46146,-3.05547 1.81597,-7.1931 -1.48012,-9.48931c-1.82409,-1.27103 -2.01574,-2.25008 -1.3715,-7.01346c0.67108,-4.96527 1.04751,-5.59047 3.64693,-6.061c1.59249,-0.28818 3.64631,-0.90741 4.5621,-1.37523l0,0zm3.33106,-680.10873c0,-0.53077 -0.49941,-0.96548 -1.11056,-0.96548s-1.11056,0.43417 -1.11056,0.96548c0,0.53077 0.49941,0.96548 1.11056,0.96548c0.61115,0 1.11056,-0.43471 1.11056,-0.96548zm-643.61341,122.50356c-0.61053,0 -1.11056,0.43417 -1.11056,0.96548s0.49941,0.96548 1.11056,0.96548c0.61053,0 1.11056,-0.43417 1.11056,-0.96548c0,-0.53077 -0.50003,-0.96548 -1.11056,-0.96548zm140.91125,559.53613c0,0.53077 0.49941,0.96494 1.11056,0.96494s1.11056,-0.43417 1.11056,-0.96494c0,-0.53077 -0.49941,-0.96548 -1.11056,-0.96548c-0.61053,0.00054 -1.11056,0.43471 -1.11056,0.96548zm643.61341,-122.50356c0.61053,0 1.10994,-0.43417 1.10994,-0.96548s-0.49941,-0.96548 -1.10994,-0.96548c-0.61053,0 -1.11056,0.43417 -1.11056,0.96548c0.00062,0.53131 0.50003,0.96548 1.11056,0.96548zm-1.10994,-436.06709c0,0.53077 0.49941,0.96548 1.11056,0.96548c0.61053,0 1.10994,-0.43417 1.10994,-0.96548s-0.49941,-0.96548 -1.10994,-0.96548c-0.61115,0 -1.11056,0.43471 -1.11056,0.96548zm-641.39291,-122.50356c0.61053,0 1.11056,-0.43417 1.11056,-0.96548c0,-0.53077 -0.49941,-0.96548 -1.11056,-0.96548s-1.11056,0.43417 -1.11056,0.96548c0,0.53077 0.50003,0.96548 1.11056,0.96548zm-140.91125,557.60571c0,-0.53077 -0.49941,-0.96548 -1.11056,-0.96548c-0.61053,0 -1.11056,0.43417 -1.11056,0.96548s0.49941,0.96548 1.11056,0.96548c0.61053,-0.00054 1.11056,-0.43471 1.11056,-0.96548zm641.39291,122.50356c-0.61053,0 -1.11056,0.43417 -1.11056,0.96548c0,0.53077 0.49941,0.96494 1.11056,0.96494s1.11056,-0.43417 1.11056,-0.96494c-0.00062,-0.53131 -0.50003,-0.96548 -1.11056,-0.96548zm4.44099,-681.13174c0,-0.56225 -0.49941,-0.75383 -1.10994,-0.42549c-0.61053,0.32834 -1.11056,0.78802 -1.11056,1.02193c0,0.23391 0.49941,0.42549 1.11056,0.42549s1.10994,-0.45968 1.10994,-1.02193l0,0zm-647.01001,119.66518c-0.64673,0 -0.8671,0.43417 -0.48942,0.96548c0.37768,0.53077 0.90643,0.96548 1.17548,0.96548c0.26906,0 0.48942,-0.43417 0.48942,-0.96548c0.00062,-0.53131 -0.52875,-0.96548 -1.17548,-0.96548l0,0zm137.64636,562.48848c0,0.56225 0.49941,0.75383 1.11056,0.42549s1.11056,-0.78802 1.11056,-1.02247c0,-0.23391 -0.49941,-0.42549 -1.11056,-0.42549c-0.61115,0.00054 -1.11056,0.46022 -1.11056,1.02247l0,0zm647.00939,-119.66464c0.64673,0 0.8671,-0.43417 0.48942,-0.96494c-0.37768,-0.53077 -0.90643,-0.96548 -1.17611,-0.96548c-0.26906,0 -0.48942,0.43417 -0.48942,0.96548s0.52937,0.96494 1.17611,0.96494l0,0zm0,-442.82385c-0.64673,0 -1.17548,0.43417 -1.17548,0.96548c0,0.53077 0.22036,0.96548 0.48942,0.96548c0.26906,0 0.79843,-0.43417 1.17611,-0.96548s0.15669,-0.96548 -0.49004,-0.96548l0,0zm-647.00939,-119.66518c0,0.56225 0.49941,1.02247 1.11056,1.02247c0.61053,0 1.11056,-0.19158 1.11056,-0.42549c0,-0.23391 -0.49941,-0.69413 -1.11056,-1.02193c-0.61115,-0.32888 -1.11056,-0.13731 -1.11056,0.42494l0,0zm-137.64636,562.48903c0.64673,0 1.17611,-0.43417 1.17611,-0.96494s-0.22036,-0.96548 -0.48942,-0.96548c-0.26906,0 -0.79843,0.43417 -1.17548,0.96548c-0.3783,0.53077 -0.15794,0.96494 0.4888,0.96494l0,0zm647.01001,119.66464c0,-0.56225 -0.49941,-1.02193 -1.10994,-1.02193s-1.11056,0.19158 -1.11056,0.42549c0,0.23391 0.49941,0.69413 1.11056,1.02247c0.61053,0.3278 1.10994,0.13622 1.10994,-0.42603l0,0zm-6.94552,-683.76986c0.25782,-0.67242 -0.50877,-0.86128 -2.06068,-0.50852c-1.97391,0.44882 -2.32849,0.23879 -1.76354,-1.04092c0.38891,-0.88191 0.25283,-1.60317 -0.30214,-1.60317c-1.98765,0 -2.23985,1.80289 -0.46695,3.34365c1.91336,1.66395 3.91411,1.58092 4.59331,-0.19103l0,0zm-641.92354,127.31904c-0.77346,-0.22414 -0.9907,0.44231 -0.58493,1.79149c0.51626,1.71551 0.27467,2.02431 -1.19733,1.53316c-1.01442,-0.33811 -1.84407,-0.2198 -1.84407,0.26267c0,1.72799 2.07379,1.94725 3.84607,0.40595c1.91398,-1.66341 1.81847,-3.40226 -0.21974,-3.99327l0,0zm146.45031,558.06756c-0.25782,0.67242 0.50877,0.86128 2.06068,0.50852c1.97329,-0.44882 2.32849,-0.23879 1.76354,1.04092c-0.38891,0.88191 -0.25283,1.60317 0.30214,1.60317c1.98765,0 2.23985,-1.80289 0.46695,-3.34365c-1.91336,-1.66395 -3.91349,-1.58092 -4.59331,0.19103l0,0zm641.92416,-127.31958c0.77346,0.22414 0.9907,-0.44231 0.58493,-1.79149c-0.51626,-1.71605 -0.27467,-2.02431 1.19733,-1.53316c1.01442,0.33811 1.84407,0.2198 1.84407,-0.26267c0,-1.72799 -2.07379,-1.94725 -3.84607,-0.40595c-1.91398,1.66341 -1.81847,3.4028 0.21974,3.99327l0,0zm0,-430.74797c-2.03821,0.59101 -2.13372,2.32986 -0.21974,3.99381c1.77228,1.54076 3.84607,1.32205 3.84607,-0.40595c0,-0.48301 -0.82964,-0.60132 -1.84407,-0.26267c-1.47263,0.49115 -1.7136,0.18235 -1.19733,-1.53316c0.40577,-1.34972 0.18853,-2.01617 -0.58493,-1.79203l0,0zm-641.92416,-127.31904c0.67982,1.77195 2.67995,1.85499 4.59393,0.19103c1.77228,-1.54076 1.5207,-3.34365 -0.46695,-3.34365c-0.55559,0 -0.69168,0.72126 -0.30214,1.60317c0.56496,1.28026 0.20975,1.48974 -1.76354,1.04092c-1.55254,-0.35331 -2.31913,-0.1639 -2.06131,0.50852l0,0zm-146.45031,558.06701c2.03821,-0.59101 2.13372,-2.32986 0.21974,-3.99381c-1.77228,-1.54076 -3.84607,-1.32205 -3.84607,0.40595c0,0.48301 0.82964,0.60132 1.84407,0.26267c1.47263,-0.49115 1.7136,-0.18235 1.19733,1.53316c-0.40639,1.35027 -0.18853,2.01617 0.58493,1.79203l0,0zm641.92354,127.31958c-0.67982,-1.77195 -2.67995,-1.85499 -4.59393,-0.19103c-1.77228,1.54076 -1.5207,3.34365 0.46695,3.34365c0.55559,0 0.69168,-0.72126 0.30214,-1.60317c-0.56496,-1.28026 -0.20975,-1.48974 1.76354,-1.04092c1.55316,0.35276 2.31913,0.1639 2.06131,-0.50852l0,0zm13.96658,-685.06694c0.32836,-0.7446 0.30339,-1.60914 -0.05681,-1.92228c-0.78282,-0.68056 -3.63382,1.22436 -3.63382,2.42863c0.00062,1.3812 3.04202,0.96386 3.69063,-0.50635zm-655.52243,114.8573c-0.85649,-0.28547 -1.85093,-0.26376 -2.21113,0.04939c-0.78282,0.68056 1.40833,3.15912 2.79357,3.15912c1.58874,0 1.10869,-2.64463 -0.58244,-3.20851zm132.11604,569.88944c-0.32836,0.7446 -0.30339,1.60914 0.05681,1.92228c0.78282,0.68056 3.63382,-1.22436 3.63382,-2.42863c0,-1.3812 -3.04202,-0.96331 -3.69063,0.50635zm655.52243,-114.8573c0.85649,0.28547 1.85093,0.26376 2.21113,-0.04939c0.78282,-0.68056 -1.40833,-3.15912 -2.79357,-3.15912c-1.58874,0.00054 -1.10806,2.64463 0.58244,3.20851zm-0.58244,-451.82363c1.38461,0 3.57639,-2.47856 2.79357,-3.15912c-0.35957,-0.3126 -1.35465,-0.33485 -2.21113,-0.04939c-1.6905,0.56388 -2.17118,3.20851 -0.58244,3.20851zm-651.24937,-117.55946c0,-1.20373 -2.851,-3.10919 -3.63382,-2.42863c-0.35957,0.3126 -0.38517,1.17768 -0.05681,1.92228c0.64861,1.47021 3.69063,1.88755 3.69063,0.50635zm-135.22423,566.17512c-1.38461,0 -3.57639,2.47856 -2.79357,3.15912c0.35957,0.3126 1.35465,0.33485 2.21113,0.04939c1.69112,-0.56442 2.17118,-3.20851 0.58244,-3.20851zm651.24999,117.55892c0,1.20373 2.851,3.10919 3.63382,2.42863c0.35957,-0.3126 0.38517,-1.17768 0.05681,-1.92228c-0.64923,-1.46966 -3.69063,-1.88755 -3.69063,-0.50635zm7.24954,-688.72427c0.39516,-0.55628 0.41139,-1.709 0.03496,-2.5616c-0.60428,-1.36872 -0.87147,-1.33507 -2.28355,0.28764c-0.87958,1.01053 -1.61559,2.16325 -1.63494,2.5616c-0.05369,1.09682 3.06325,0.86617 3.88353,-0.28764l0,0zm-664.23961,116.24718c-0.63987,-0.34408 -1.9658,-0.35765 -2.94651,-0.03039c-1.57439,0.52534 -1.53568,0.75763 0.33086,1.98524c1.16237,0.76468 2.4883,1.40454 2.94651,1.42136c1.26163,0.04667 0.99632,-2.66363 -0.33086,-3.37621l0,0zm133.71477,577.46732c-0.39578,0.55628 -0.41139,1.709 -0.03496,2.56106c0.60428,1.36872 0.87147,1.33507 2.28355,-0.28764c0.87958,-1.01053 1.61559,-2.16325 1.63494,-2.56106c0.05369,-1.09628 -3.06387,-0.86562 -3.88353,0.28764l0,0zm664.23898,-116.24664c0.63987,0.34354 1.9658,0.35765 2.94589,0.03039c1.57439,-0.52534 1.53568,-0.75763 -0.33086,-1.98524c-1.16237,-0.76468 -2.4883,-1.40454 -2.94589,-1.42136c-1.26101,-0.04667 -0.9957,2.66309 0.33086,3.37621l0,0zm0,-461.22068c-1.32718,0.71258 -1.59249,3.42288 -0.33086,3.37621c0.45821,-0.01682 1.78414,-0.65668 2.94589,-1.42136c1.86592,-1.22816 1.90462,-1.45989 0.33086,-1.98524c-0.98009,-0.32726 -2.30602,-0.31369 -2.94589,0.03039l0,0zm-664.23898,-116.24718c0.81965,1.1538 3.93721,1.38446 3.88353,0.28764c-0.01935,-0.39835 -0.75536,-1.55107 -1.63494,-2.5616c-1.4127,-1.62216 -1.67926,-1.65581 -2.28355,-0.28764c-0.37643,0.8526 -0.36082,2.00532 0.03496,2.5616l0,0zm-133.71477,577.46787c1.32718,-0.71258 1.59249,-3.42288 0.33086,-3.37621c-0.45821,0.01682 -1.78414,0.65668 -2.94651,1.42136c-1.86592,1.22816 -1.90462,1.46044 -0.33086,1.98524c0.98071,0.32671 2.30664,0.31314 2.94651,-0.03039l0,0zm664.23961,116.24664c-0.81965,-1.1538 -3.93721,-1.38446 -3.88353,-0.28764c0.01935,0.39835 0.75536,1.55107 1.63494,2.56106c1.4127,1.62216 1.67989,1.65581 2.28355,0.28764c0.3758,-0.85206 0.3602,-2.00478 -0.03496,-2.56106l0,0zm-21.1281,-697.04675c0,-2.68154 -2.15932,-3.27092 -3.21557,-0.87811c-0.80218,1.817 0.0462,3.291 1.89338,3.291c0.72726,0 1.32218,-1.08542 1.32218,-2.4129l0,0zm-646.94446,137.9475c-3.08447,0 -3.76242,1.87724 -1.01005,2.79551c2.09002,0.69738 3.78552,-0.04016 3.78552,-1.64604c0,-0.63226 -1.24852,-1.15001 -2.77546,-1.14946l0,0zm158.67583,562.4315c0,2.68154 2.15932,3.27092 3.21557,0.87811c0.80218,-1.817 -0.0462,-3.291 -1.89338,-3.291c-0.72726,0 -1.32281,1.08597 -1.32218,2.4129l0,0zm646.94384,-137.94696c3.08447,0 3.76242,-1.87724 1.01005,-2.79551c-2.09002,-0.69738 -3.78552,0.04016 -3.78552,1.64604c0,0.63226 1.24915,1.14946 2.77546,1.14946l0,0zm0,-424.48508c-1.52632,0 -2.77546,0.5172 -2.77546,1.14946c0,1.60588 1.69549,2.34343 3.78552,1.64604c2.75299,-0.91773 2.07442,-2.79496 -1.01005,-2.79551l0,0zm-646.94446,-137.94696c0,1.32693 0.59492,2.4129 1.32218,2.4129c1.84719,0 2.69556,-1.474 1.89338,-3.291c-1.05562,-2.39282 -3.21494,-1.80289 -3.21557,0.87811l0,0zm-158.67521,562.43204c1.52632,0 2.77546,-0.5172 2.77546,-1.14946c0,-1.60588 -1.69549,-2.34343 -3.78552,-1.64604c-2.75237,0.91827 -2.07379,2.79551 1.01005,2.79551l0,0zm646.94446,137.94696c0,-1.32693 -0.59492,-2.4129 -1.32218,-2.4129c-1.84719,0 -2.69556,1.474 -1.89338,3.291c1.05625,2.39336 3.21557,1.80343 3.21557,-0.87811l0,0zm11.10248,-699.90956c0,-2.06882 -3.22618,-1.77033 -3.69375,0.34245c-0.28591,1.29003 0.16668,1.68295 1.64992,1.43439c1.12429,-0.18832 2.04383,-0.98773 2.04383,-1.77684zm-657.50696,127.82539c-2.37968,0 -2.03634,2.80473 0.39391,3.21122c1.48387,0.24856 1.93583,-0.1449 1.64992,-1.43439c-0.21662,-0.97688 -1.13615,-1.77684 -2.04383,-1.77684zm147.03275,571.61472c0,2.06882 3.22618,1.77033 3.69375,-0.34191c0.28591,-1.29003 -0.16668,-1.68295 -1.64992,-1.43439c-1.12367,0.18778 -2.04383,0.98773 -2.04383,1.77629zm657.50696,-127.82539c2.37968,0 2.03634,-2.80473 -0.39328,-3.21122c-1.48387,-0.24856 -1.93583,0.1449 -1.64992,1.43439c0.21599,0.97742 1.13615,1.77684 2.04321,1.77684zm-2.04383,-442.01249c-0.28591,1.29003 0.16668,1.68295 1.64992,1.43439c2.42962,-0.40649 2.77359,-3.21122 0.39328,-3.21122c-0.90643,0 -1.82659,0.79996 -2.04321,1.77684zm-653.4193,-127.82539c1.48387,0.24856 1.93583,-0.1449 1.64992,-1.43439c-0.46757,-2.11223 -3.69375,-2.41127 -3.69375,-0.34245c0,0.7891 0.92016,1.58852 2.04383,1.77684zm-147.03275,568.06105c0.28591,-1.29003 -0.16668,-1.68295 -1.64992,-1.43439c-2.42962,0.40649 -2.77359,3.21122 -0.39391,3.21122c0.90768,0 1.82721,-0.79941 2.04383,-1.77684zm653.4193,127.82539c-1.48387,-0.24856 -1.93583,0.1449 -1.64992,1.43439c0.46757,2.11223 3.69375,2.41127 3.69375,0.34191c0,-0.78802 -0.91954,-1.58797 -2.04383,-1.77629zm10.35399,-701.26959c-0.00874,-0.39835 -0.48817,-1.37197 -1.06374,-2.16379c-0.79156,-1.08814 -1.36026,-1.16792 -2.32912,-0.32563c-0.70479,0.61272 -0.94638,1.58635 -0.53562,2.16379c0.84025,1.18257 3.95469,1.44036 3.92847,0.32563l0,0zm-669.96533,124.20768c-0.45821,0.0076 -1.57813,0.4244 -2.48893,0.92532c-1.25164,0.68816 -1.34341,1.18203 -0.37456,2.02486c0.70479,0.61272 1.82471,0.82275 2.48893,0.46565c1.36026,-0.73103 1.65679,-3.43862 0.37456,-3.41583l0,0zm142.87143,582.44507c0.00874,0.39835 0.48817,1.37197 1.06436,2.16379c0.79156,1.08814 1.35964,1.16792 2.32912,0.32563c0.70479,-0.61272 0.94638,-1.58635 0.53562,-2.16379c-0.84088,-1.18257 -3.95532,-1.44036 -3.9291,-0.32563l0,0zm669.9647,-124.20713c0.45821,-0.0076 1.57813,-0.4244 2.48893,-0.92478c1.25164,-0.68816 1.34341,-1.18257 0.37456,-2.02486c-0.70479,-0.61272 -1.82471,-0.82275 -2.48893,-0.46565c-1.36026,0.73049 -1.65679,3.43808 -0.37456,3.41528l0,0zm0,-458.23848c-1.28223,-0.02279 -0.98571,2.68479 0.37456,3.41583c0.66359,0.35656 1.78351,0.14707 2.48893,-0.46565c0.96885,-0.84229 0.87771,-1.3367 -0.37456,-2.02486c-0.9108,-0.50038 -2.03072,-0.91773 -2.48893,-0.92532l0,0zm-669.96533,-124.20713c-0.02622,1.11473 3.08822,0.85694 3.9291,-0.32563c0.41014,-0.5769 0.16917,-1.55107 -0.53562,-2.16379c-0.96885,-0.84229 -1.53755,-0.76305 -2.32912,0.32563c-0.57557,0.79182 -1.05562,1.76544 -1.06436,2.16379l0,0zm-142.8708,582.44562c1.28223,0.02279 0.98571,-2.68479 -0.37456,-3.41583c-0.66359,-0.35656 -1.78414,-0.14707 -2.48893,0.46565c-0.96885,0.84229 -0.87771,1.3367 0.37456,2.02486c0.9108,0.50092 2.03072,0.91773 2.48893,0.92532l0,0zm669.96533,124.20713c0.02622,-1.11473 -3.08822,-0.85694 -3.9291,0.32563c-0.41014,0.5769 -0.16917,1.55053 0.53562,2.16379c0.96885,0.84229 1.53755,0.76305 2.32912,-0.32563c0.57619,-0.79182 1.05562,-1.76544 1.06436,-2.16379l0,0zm-12.82606,-710.86093c-0.84338,-1.18637 -4.63201,-1.08162 -5.5091,0.15196c-0.39516,0.55628 -0.43386,1.65744 -0.08552,2.44654c0.55185,1.25041 0.99257,1.23087 3.4197,-0.15196c1.53194,-0.87268 2.51078,-1.9733 2.17492,-2.44654l0,0zm-661.97978,139.56641c-1.36463,0.7332 -1.24415,4.02692 0.17479,4.78943c0.63987,0.34354 1.90649,0.37718 2.81417,0.07435c1.4383,-0.47976 1.41582,-0.86291 -0.17479,-2.97297c-1.00381,-1.33236 -2.26981,-2.18333 -2.81417,-1.89081l0,0zm160.538,575.50271c0.84338,1.18637 4.63201,1.08162 5.5091,-0.15196c0.39516,-0.55628 0.43386,-1.65744 0.08552,-2.44654c-0.55185,-1.25041 -0.99257,-1.23087 -3.4197,0.15196c-1.53256,0.87268 -2.5114,1.97384 -2.17492,2.44654l0,0zm661.97916,-139.56587c1.36463,-0.7332 1.24415,-4.02692 -0.17479,-4.78943c-0.63987,-0.34354 -1.90649,-0.37718 -2.81417,-0.07435c-1.4383,0.47976 -1.41582,0.86291 0.17479,2.97297c1.00381,1.33181 2.27044,2.18279 2.81417,1.89081l0,0zm0,-435.93684c-0.54373,-0.29198 -1.81036,0.55845 -2.81417,1.89081c-1.58999,2.11006 -1.61247,2.49322 -0.17479,2.97297c0.9083,0.30283 2.1743,0.26973 2.81417,-0.07435c1.41894,-0.76251 1.53943,-4.05623 0.17479,-4.78943l0,0zm-661.97916,-139.56587c-0.33585,0.4727 0.64236,1.57386 2.17492,2.44654c2.42713,1.38283 2.86785,1.40237 3.4197,0.15196c0.34834,-0.78965 0.31026,-1.89026 -0.08552,-2.44654c-0.87709,-1.23413 -4.66572,-1.33833 -5.5091,-0.15196l0,0zm-160.53738,575.50271c0.54373,0.29198 1.81036,-0.55845 2.81417,-1.89081c1.59062,-2.11006 1.61309,-2.49322 0.17479,-2.97297c-0.9083,-0.30283 -2.1743,-0.26973 -2.81417,0.07435c-1.41957,0.76197 -1.53943,4.05623 -0.17479,4.78943l0,0zm661.97916,139.56587c0.33585,-0.4727 -0.64236,-1.57386 -2.17492,-2.44654c-2.42713,-1.38229 -2.86785,-1.40182 -3.4197,-0.15196c-0.34834,0.78965 -0.31026,1.89026 0.08552,2.44654c0.87646,1.23358 4.66572,1.33833 5.5091,0.15196l0,0zm6.7364,-715.92877c-0.37768,-0.53077 -1.6855,-0.96548 -2.90656,-0.96548c-1.22105,0 -1.91149,0.43417 -1.53443,0.96548c0.37768,0.53077 1.6855,0.96548 2.90656,0.96548c1.22168,0 1.91211,-0.43417 1.53443,-0.96548zm-669.70501,134.56912c-0.61053,0.32834 -1.11056,1.46532 -1.11056,2.52686c0,1.06154 0.49941,1.66178 1.11056,1.33398c0.61053,-0.32834 1.11056,-1.46532 1.11056,-2.52686c0,-1.06154 -0.49941,-1.66178 -1.11056,-1.33398zm154.78981,582.21931c0.37768,0.53077 1.6855,0.96548 2.90656,0.96548c1.22105,0 1.91149,-0.43417 1.53443,-0.96548c-0.37768,-0.53077 -1.6855,-0.96548 -2.90656,-0.96548c-1.22105,0 -1.91149,0.43471 -1.53443,0.96548zm669.70501,-134.56912c0.61053,-0.32834 1.11056,-1.46532 1.11056,-2.52686c0,-1.06154 -0.49941,-1.66178 -1.11056,-1.33398c-0.61053,0.32834 -1.11056,1.46532 -1.11056,2.52686c0,1.06209 0.50003,1.66233 1.11056,1.33398zm-1.11056,-446.3162c0,1.06209 0.49941,2.19907 1.11056,2.52686c0.61053,0.32834 1.11056,-0.27244 1.11056,-1.33398c0,-1.06209 -0.49941,-2.19907 -1.11056,-2.52686c-0.61053,-0.3278 -1.11056,0.27244 -1.11056,1.33398zm-667.06002,-134.93762c1.22168,0 2.5295,-0.43417 2.90656,-0.96548c0.37768,-0.53077 -0.31338,-0.96548 -1.53443,-0.96548c-1.22168,0 -2.5295,0.43417 -2.90656,0.96548c-0.37705,0.53131 0.31338,0.96548 1.53443,0.96548zm-155.21368,579.91984c0,-1.06209 -0.49941,-2.19907 -1.11056,-2.52686c-0.61053,-0.3278 -1.11056,0.27244 -1.11056,1.33398c0,1.06209 0.49941,2.19907 1.11056,2.52686c0.61115,0.32834 1.11056,-0.2719 1.11056,-1.33398zm667.06002,134.93762c-1.22168,0 -2.5295,0.43417 -2.90656,0.96548c-0.37705,0.53077 0.31338,0.96548 1.53443,0.96548c1.22168,0 2.5295,-0.43417 2.90656,-0.96548s-0.31275,-0.96548 -1.53443,-0.96548zm-88.37222,-702.22314c-10.86463,-1.57386 -23.68445,-10.83252 -29.22352,-21.10497c-2.76672,-5.13188 -2.97585,-6.43385 -2.97585,-18.54988c0,-13.02236 0.00187,-13.03539 4.08579,-20.46891c6.32626,-11.51742 17.13596,-19.71128 31.82793,-24.1257c6.37308,-1.91469 9.51998,-2.21372 22.93034,-2.18007c13.97532,0.03528 16.41556,0.30338 24.18511,2.6582c23.53338,7.13231 40.63687,18.14936 56.50621,36.39586c2.07754,2.38902 7.34131,8.68718 11.69677,13.99599c4.35609,5.3088 10.08181,11.67427 12.72493,14.14523c5.22007,4.8806 14.68324,11.4333 16.5117,11.4333c0.62676,0 2.33973,0.68382 3.80674,1.51905c3.89601,2.21915 12.61568,4.00521 23.35047,4.78237c5.18823,0.37556 9.43258,1.03495 9.43258,1.46424c0,0.71692 -4.42039,0.58938 -17.76459,-0.51123c-6.58907,-0.54325 -19.89394,-5.1156 -30.00821,-10.3126c-11.78292,-6.0534 -25.48607,-18.24325 -38.3371,-34.10399c-17.58979,-21.70792 -29.88211,-30.84447 -49.48327,-36.78065c-9.70039,-2.93715 -23.45972,-3.9238 -34.98482,-2.50841c-20.71047,2.54315 -38.38579,16.28189 -43.81936,34.05895c-1.03003,3.36915 -1.06561,6.88267 -0.15107,14.74439c1.00693,8.65571 1.77165,11.21242 4.73751,15.84663c12.12751,18.94497 38.67919,24.27657 56.38572,11.32313c4.74313,-3.46955 8.32327,-12.05417 7.72273,-18.51732c-0.51876,-5.58342 -4.69069,-11.37578 -9.2865,-12.89483c-1.46639,-0.48464 -2.66684,-1.32639 -2.66684,-1.87073c0,-1.42245 0.93577,-1.24064 5.0871,0.98991c15.9561,8.57321 9.47253,34.066 -10.14236,39.87736c-5.39736,1.59883 -14.03525,1.86964 -22.14627,0.69467l-0.00187,0zm-564.15501,199.13117c-1.81036,9.44535 -12.46024,20.59048 -24.27625,25.40596c-5.90301,2.4053 -7.40061,2.58711 -21.33723,2.58711c-14.97914,0 -14.99412,-0.00163 -23.54462,-3.55205c-13.24806,-5.49984 -22.67315,-14.89797 -27.75089,-27.67015c-2.20239,-5.54054 -2.54636,-8.27635 -2.50766,-19.93488c0.04058,-12.14968 0.34896,-14.27114 3.05763,-21.02573c8.20403,-20.45914 20.87653,-35.32835 41.8648,-49.12516c2.748,-1.80614 9.99254,-6.38229 16.09906,-10.16879c6.10652,-3.78704 13.42847,-8.76479 16.27073,-11.06263c5.61398,-4.53815 13.1513,-12.76512 13.1513,-14.35472c0,-0.54488 0.78657,-2.03408 1.74731,-3.30945c2.5526,-3.38706 4.60704,-10.96766 5.50099,-20.30012c0.43199,-4.51048 1.19047,-8.20037 1.68426,-8.20037c0.82465,0 0.67795,3.84294 -0.58805,15.44394c-0.62488,5.72832 -5.88428,17.29513 -11.8622,26.08814c-6.963,10.24368 -20.98452,22.15674 -39.22854,33.329c-24.9698,15.29198 -35.47923,25.97852 -42.3074,43.01912c-3.3785,8.43319 -4.5134,20.3951 -2.88533,30.41464c2.92529,18.005 18.72845,33.37133 39.17673,38.09509c3.87541,0.89547 7.91687,0.92641 16.95991,0.13134c9.95633,-0.87539 12.89723,-1.54022 18.22779,-4.11918c21.79169,-10.54326 27.92443,-33.62641 13.02458,-49.01988c-3.9909,-4.12352 -13.86545,-7.23597 -21.29978,-6.71388c-6.42239,0.45099 -13.08513,4.07793 -14.83243,8.07338c-0.55746,1.27483 -1.52569,2.31846 -2.15183,2.31846c-1.63619,0 -1.42706,-0.81352 1.13865,-4.42256c9.86145,-13.87171 39.18484,-8.2351 45.86943,8.81743c1.83907,4.69228 2.15058,12.20178 0.79905,19.25323l0,0.00271zm229.05311,490.45764c10.86463,1.57386 23.68445,10.83252 29.22352,21.10497c2.76672,5.13188 2.97585,6.43385 2.97585,18.54988c0,13.02236 -0.00187,13.03539 -4.08579,20.46891c-6.32626,11.51742 -17.13658,19.71128 -31.82793,24.1257c-6.37308,1.91469 -9.51998,2.21372 -22.93034,2.18007c-13.97532,-0.03528 -16.41556,-0.30338 -24.18511,-2.6582c-23.53338,-7.13231 -40.63687,-18.14936 -56.50683,-36.39586c-2.07754,-2.38902 -7.34131,-8.68718 -11.69677,-13.99599c-4.35609,-5.3088 -10.08181,-11.67427 -12.72493,-14.14523c-5.22007,-4.8806 -14.68324,-11.43385 -16.5117,-11.43385c-0.62676,0 -2.33973,-0.68382 -3.80674,-1.51905c-3.89601,-2.21915 -12.61568,-4.00521 -23.35047,-4.78237c-5.18823,-0.37556 -9.43258,-1.03495 -9.43258,-1.46424c0,-0.71692 4.42039,-0.58938 17.76459,0.51123c6.58907,0.54325 19.89394,5.1156 30.00821,10.3126c11.78292,6.0534 25.48607,18.24325 38.3371,34.10345c17.58979,21.70792 29.88211,30.84447 49.48327,36.78065c9.70039,2.93715 23.45972,3.9238 34.98482,2.50841c20.71047,-2.54315 38.38579,-16.28189 43.81936,-34.05895c1.03003,-3.36915 1.06561,-6.88267 0.15107,-14.74439c-1.00693,-8.65571 -1.77165,-11.21242 -4.73814,-15.84663c-12.12751,-18.94497 -38.67919,-24.27657 -56.38572,-11.32313c-4.74313,3.46955 -8.32327,12.05471 -7.72273,18.51732c0.51876,5.58342 4.69069,11.37578 9.2865,12.89483c1.46639,0.48464 2.66684,1.32639 2.66684,1.87073c0,1.42245 -0.93577,1.24064 -5.0871,-0.98991c-15.9561,-8.57321 -9.47253,-34.066 10.14236,-39.87736c5.39736,-1.59883 14.03525,-1.86964 22.14627,-0.69467l0.00312,0.00109zm564.15501,-199.13117c1.81036,-9.44535 12.46024,-20.59048 24.27625,-25.40596c5.90301,-2.4053 7.40061,-2.58711 21.33723,-2.58711c14.97914,0 14.99412,0.00163 23.54462,3.55205c13.24806,5.49984 22.67315,14.89743 27.75089,27.67015c2.20239,5.54054 2.54636,8.27635 2.50766,19.93488c-0.04058,12.14968 -0.34896,14.27114 -3.05763,21.02573c-8.20403,20.45914 -20.87653,35.32835 -41.8648,49.12462c-2.748,1.80614 -9.99254,6.38229 -16.09906,10.16879c-6.10652,3.78704 -13.42847,8.76479 -16.27073,11.06263c-5.61398,4.53815 -13.15192,12.76512 -13.15192,14.35472c0,0.54488 -0.78657,2.03408 -1.74731,3.30945c-2.5526,3.38706 -4.60704,10.96766 -5.50099,20.30012c-0.43199,4.51048 -1.19047,8.20037 -1.68426,8.20037c-0.82465,0 -0.67795,-3.84294 0.58805,-15.44394c0.62488,-5.72832 5.88428,-17.29513 11.8622,-26.08814c6.963,-10.24368 20.98452,-22.15674 39.22792,-33.329c24.9698,-15.29198 35.47923,-25.97852 42.3074,-43.01912c3.3785,-8.43319 4.5134,-20.3951 2.88533,-30.41464c-2.92529,-18.005 -18.72845,-33.37133 -39.17673,-38.09509c-3.87541,-0.89547 -7.91687,-0.92641 -16.95991,-0.13134c-9.95633,0.87539 -12.89723,1.54022 -18.22779,4.11864c-21.79169,10.54326 -27.92443,33.62641 -13.02458,49.01988c3.9909,4.12352 13.86608,7.23597 21.29978,6.71388c6.42239,-0.45099 13.08513,-4.07793 14.83243,-8.07338c0.55746,-1.27483 1.52569,-2.31846 2.15183,-2.31846c1.63619,0 1.42706,0.81352 -1.13865,4.42256c-9.86145,13.87171 -39.18484,8.2351 -45.86943,-8.81743c-1.83907,-4.69228 -2.15058,-12.20178 -0.79905,-19.25323l0.00125,-0.00163zm-0.00125,-291.32972c-1.35152,-7.05145 -1.04002,-14.56095 0.79905,-19.25323c6.68396,-17.05254 36.00798,-22.68914 45.86943,-8.81743c2.56571,3.60903 2.77484,4.42256 1.13865,4.42256c-0.62551,0 -1.59374,-1.04309 -2.15183,-2.31846c-1.74731,-3.99544 -8.41004,-7.62184 -14.83243,-8.07338c-7.4337,-0.52209 -17.30888,2.59036 -21.29978,6.71388c-14.89985,15.39347 -8.76712,38.47662 13.02458,49.01988c5.33056,2.57897 8.27145,3.24379 18.22779,4.11918c9.04304,0.79507 13.08388,0.76414 16.95991,-0.13134c20.44766,-4.72376 36.25144,-20.0901 39.17673,-38.09509c1.62807,-10.01954 0.49317,-21.98145 -2.88533,-30.41464c-6.82816,-17.0406 -17.33759,-27.72713 -42.3074,-43.01912c-18.24339,-11.17226 -32.26491,-23.08532 -39.22792,-33.329c-5.97792,-8.79301 -11.23669,-20.35982 -11.8622,-26.08814c-1.266,-11.601 -1.41208,-15.44394 -0.58805,-15.44394c0.49441,0 1.25227,3.6899 1.68426,8.20037c0.89394,9.33247 2.94838,16.91306 5.50099,20.30012c0.96136,1.27537 1.74731,2.76457 1.74731,3.30945c0,1.5896 7.53732,9.81657 13.15192,14.35472c2.84226,2.29784 10.16421,7.27559 16.27073,11.06263c6.10652,3.7865 13.35106,8.36264 16.09906,10.16879c20.98827,13.79627 33.66014,28.66602 41.8648,49.12516c2.70867,6.75405 3.01705,8.87605 3.05763,21.02573c0.0387,11.65853 -0.30526,14.39434 -2.50766,19.93488c-5.07774,12.77272 -14.50282,22.17031 -27.75089,27.67015c-8.5505,3.55042 -8.56548,3.55205 -23.54462,3.55205c-13.93724,0 -15.43422,-0.18127 -21.33723,-2.58711c-11.81538,-4.81548 -22.46589,-15.9606 -24.27625,-25.40596l-0.00125,-0.00271zm-564.15751,-199.12629c-8.11102,1.17497 -16.74891,0.90416 -22.14627,-0.69467c-19.6149,-5.81081 -26.09847,-31.30414 -10.14236,-39.87736c4.15133,-2.23054 5.0871,-2.41235 5.0871,-0.98991c0,0.5438 -1.19983,1.38554 -2.66684,1.87073c-4.59581,1.51905 -8.76712,7.31141 -9.2865,12.89483c-0.60054,6.46261 2.9796,15.04776 7.72273,18.51732c17.70653,12.95344 44.25821,7.62184 56.38572,-11.32313c2.96649,-4.63421 3.73121,-7.19093 4.73814,-15.84663c0.91454,-7.86172 0.87896,-11.37469 -0.15107,-14.74439c-5.43357,-17.77652 -23.10888,-31.5158 -43.81936,-34.05895c-11.5251,-1.41539 -25.28443,-0.42874 -34.98482,2.50841c-19.60116,5.93618 -31.89348,15.07273 -49.48327,36.78065c-12.85103,15.8602 -26.55418,28.05005 -38.3371,34.10399c-10.11427,5.19701 -23.41914,9.76881 -30.00821,10.3126c-13.3442,1.10062 -17.76459,1.22761 -17.76459,0.51123c0,-0.42983 4.24435,-1.08868 9.43258,-1.46424c10.73479,-0.77716 19.45446,-2.56323 23.35047,-4.78237c1.46701,-0.83578 3.17998,-1.51905 3.80674,-1.51905c1.82846,0 11.29163,-6.5527 16.5117,-11.4333c2.64312,-2.47097 8.36884,-8.83643 12.72493,-14.14523c4.35547,-5.3088 9.61923,-11.60697 11.69677,-13.99599c15.86933,-18.2465 32.97345,-29.26301 56.50683,-36.39586c7.76892,-2.35483 10.20978,-2.62292 24.18511,-2.6582c13.41037,-0.03365 16.55727,0.26539 22.93034,2.18007c14.69198,4.41442 25.50167,12.60827 31.82793,24.1257c4.08391,7.43352 4.08579,7.44654 4.08579,20.46891c0,12.11658 -0.2085,13.418 -2.97585,18.54988c-5.53907,10.2719 -18.35888,19.5311 -29.22352,21.10497l-0.00312,0zm-229.04749,490.45927c1.35152,7.05145 1.04002,14.56095 -0.79905,19.25323c-6.68396,17.05254 -36.00798,22.68914 -45.86943,8.81743c-2.56571,-3.60903 -2.77484,-4.42256 -1.13865,-4.42256c0.62551,0 1.59374,1.04309 2.15183,2.31846c1.74731,3.99544 8.41004,7.62238 14.83243,8.07338c7.4337,0.52209 17.30888,-2.59036 21.29978,-6.71388c14.89985,-15.39347 8.76712,-38.47662 -13.02458,-49.01988c-5.33056,-2.57897 -8.27145,-3.24324 -18.22779,-4.11864c-9.04304,-0.79507 -13.08388,-0.76414 -16.95991,0.13134c-20.44766,4.72376 -36.25144,20.0901 -39.17673,38.09509c-1.62807,10.01954 -0.49317,21.98145 2.88533,30.41464c6.82816,17.0406 17.33759,27.72713 42.3074,43.01912c18.24339,11.17226 32.26491,23.08478 39.22854,33.329c5.97792,8.79301 11.23669,20.35982 11.8622,26.08814c1.266,11.601 1.41208,15.44394 0.58805,15.44394c-0.49441,0 -1.25227,-3.6899 -1.68426,-8.20037c-0.89394,-9.33247 -2.94838,-16.91306 -5.50099,-20.30012c-0.96136,-1.27537 -1.74731,-2.76457 -1.74731,-3.30945c0,-1.5896 -7.53732,-9.81657 -13.1513,-14.35472c-2.84226,-2.29784 -10.16421,-7.27559 -16.27073,-11.06263c-6.10652,-3.7865 -13.35106,-8.36264 -16.09906,-10.16879c-20.98827,-13.79627 -33.66014,-28.66602 -41.8648,-49.12462c-2.70867,-6.75405 -3.01705,-8.87605 -3.05763,-21.02573c-0.0387,-11.65853 0.30526,-14.39434 2.50766,-19.93488c5.07774,-12.77272 14.50282,-22.17085 27.75089,-27.67015c8.5505,-3.55096 8.56548,-3.55205 23.54462,-3.55205c13.93724,0 15.43422,0.18127 21.33723,2.58711c11.81538,4.81548 22.46589,15.9606 24.27625,25.40596l0,0.00163zm564.15688,199.12683c8.11102,-1.17497 16.74891,-0.90416 22.14627,0.69467c19.6149,5.81081 26.09847,31.30414 10.14236,39.87736c-4.15133,2.23054 -5.0871,2.41235 -5.0871,0.98991c0,-0.5438 1.19983,-1.38554 2.66684,-1.87073c4.59581,-1.51905 8.76774,-7.31141 9.2865,-12.89483c0.60054,-6.46261 -2.9796,-15.04776 -7.72273,-18.51732c-17.70653,-12.95344 -44.25821,-7.62184 -56.38572,11.32313c-2.96649,4.63421 -3.73058,7.19093 -4.73751,15.84663c-0.91454,7.86172 -0.87896,11.37469 0.15107,14.74439c5.43357,17.77652 23.10888,31.5158 43.81936,34.05895c11.5251,1.41539 25.28443,0.42874 34.98482,-2.50841c19.60116,-5.93618 31.89348,-15.07273 49.48327,-36.78065c12.85103,-15.8602 26.55355,-28.05005 38.3371,-34.10345c10.11427,-5.19701 23.41914,-9.76881 30.00821,-10.3126c13.3442,-1.10062 17.76459,-1.22761 17.76459,-0.51123c0,0.42983 -4.24435,1.08868 -9.43258,1.46424c-10.73479,0.77716 -19.45446,2.56323 -23.35047,4.78237c-1.46701,0.83578 -3.17998,1.51905 -3.80674,1.51905c-1.82846,0 -11.29163,6.5527 -16.5117,11.43385c-2.64312,2.47097 -8.36884,8.83643 -12.72493,14.14523c-4.35547,5.3088 -9.61923,11.60697 -11.69677,13.99599c-15.86933,18.2465 -32.97345,29.26301 -56.50621,36.39586c-7.76892,2.35483 -10.20978,2.62292 -24.18511,2.6582c-13.41037,0.03365 -16.55727,-0.26539 -22.93034,-2.18007c-14.69198,-4.41442 -25.5023,-12.60827 -31.82793,-24.1257c-4.08454,-7.43352 -4.08579,-7.44654 -4.08579,-20.46891c0,-12.11658 0.2085,-13.418 2.97585,-18.54988c5.53907,-10.2719 18.35888,-19.5311 29.22352,-21.10497l0.00187,-0.00109zm48.84091,-695.6916c-1.83221,-0.54705 -3.95532,-1.13861 -4.71879,-1.31499c-2.6993,-0.62358 -1.34278,-2.31141 1.8578,-2.31141c4.20752,0 9.81213,-4.11538 12.43153,-9.13004c6.27132,-12.00207 -2.58069,-28.38273 -20.48137,-37.90026c-6.66086,-3.54174 -7.15091,-3.64431 -17.40189,-3.64431c-11.40774,0 -13.36979,0.62683 -20.84781,6.66287c-6.21826,5.01845 -8.09229,15.11126 -4.06768,21.90981c0.81778,1.3812 3.27799,3.87876 5.4679,5.55031c3.54455,2.70542 4.7319,3.03918 10.82655,3.03918c4.91418,0 6.50542,0.29469 5.64207,1.04581c-1.57876,1.37252 -10.01189,1.3291 -14.22815,-0.07327c-4.45285,-1.48052 -7.0273,-3.62206 -9.57866,-7.96755c-6.65275,-11.33236 -1.69861,-24.11702 11.61062,-29.96256c15.75197,-6.91849 30.18113,-3.48367 48.05996,11.43982c13.09637,10.9313 20.59186,14.90015 28.1423,14.90015c4.75936,0 10.89273,-1.60317 13.44907,-3.51514c2.52451,-1.88864 3.24366,-1.63356 3.24366,1.15001c0,6.60806 -6.16083,11.05232 -15.32248,11.05232c-4.41852,0 -6.33562,-0.58884 -10.21041,-3.13687c-9.90639,-6.51362 -9.21846,-6.38446 -6.69083,-1.25909c4.35672,8.83589 2.12623,18.09726 -5.41234,22.47531c-4.04771,2.3494 -6.51853,2.55726 -11.77106,0.98991l0,0zm-620.02072,162.77113c-0.62925,1.59286 -1.3097,3.43862 -1.51258,4.10236c-0.71728,2.34668 -2.65873,1.16737 -2.65873,-1.61511c0,-3.65788 -4.73377,-8.5298 -10.50194,-10.80756c-13.80553,-5.45208 -32.64759,2.24357 -43.59525,17.80582c-4.07393,5.79073 -4.19191,6.21676 -4.19191,15.12863c0,9.91751 0.72102,11.62325 7.66405,18.12439c5.77254,5.40595 17.38192,7.03517 25.20203,3.53631c1.58874,-0.71095 4.46159,-2.84978 6.38431,-4.75361c3.11194,-3.08152 3.49586,-4.11375 3.49586,-9.41225c0,-4.27223 0.33897,-5.6556 1.20295,-4.90503c1.57876,1.37252 1.52881,8.70401 -0.08428,12.36948c-1.70298,3.87116 -4.16632,6.1093 -9.16477,8.32737c-13.03519,5.78368 -27.7409,1.47672 -34.46481,-10.09389c-7.95808,-13.69424 -4.00713,-26.23847 13.15879,-41.78173c12.57386,-11.38555 17.13908,-17.90188 17.13908,-24.46598c0,-4.13763 -1.84407,-9.46977 -4.04334,-11.69218c-2.17243,-2.19473 -1.87902,-2.81993 1.32281,-2.81993c7.601,0 12.71307,5.35602 12.71307,13.32085c0,3.84131 -0.67732,5.50798 -3.60823,8.87659c-7.49238,8.61229 -7.3438,8.01422 -1.44828,5.81678c10.16359,-3.78758 20.8166,-1.84848 25.85251,4.70531c2.70242,3.51894 2.94152,5.66699 1.13865,10.23337l0,0zm187.22952,539.02598c1.83221,0.54705 3.95532,1.13861 4.71879,1.31499c2.6993,0.62358 1.34278,2.31141 -1.8578,2.31141c-4.20752,0 -9.81151,4.11538 -12.43153,9.13004c-6.27132,12.00207 2.58069,28.38273 20.48137,37.90026c6.66086,3.54174 7.15091,3.64431 17.40189,3.64431c11.40774,0 13.36979,-0.62683 20.84781,-6.66287c6.21826,-5.01845 8.09229,-15.11126 4.06768,-21.90981c-0.81778,-1.3812 -3.27799,-3.87876 -5.4679,-5.55031c-3.54455,-2.70542 -4.7319,-3.03918 -10.82655,-3.03918c-4.91418,0 -6.50542,-0.29469 -5.64207,-1.04581c1.57876,-1.37252 10.01189,-1.3291 14.22815,0.07327c4.45285,1.48106 7.0273,3.62206 9.57866,7.96755c6.65275,11.33236 1.69861,24.11702 -11.61062,29.96256c-15.75197,6.91849 -30.18113,3.48367 -48.05996,-11.43982c-13.09637,-10.9313 -20.59186,-14.90015 -28.1423,-14.90015c-4.75936,0 -10.89273,1.60317 -13.44907,3.51514c-2.52451,1.88864 -3.24366,1.63356 -3.24366,-1.15001c0,-6.60806 6.16083,-11.05232 15.32248,-11.05232c4.41852,0 6.33562,0.58884 10.21041,3.13687c9.90639,6.51362 9.21846,6.38446 6.69083,1.25909c-4.35672,-8.83589 -2.12623,-18.09726 5.41234,-22.47531c4.04771,-2.34994 6.51853,-2.5578 11.77106,-0.98991l0,0zm620.02135,-162.77167c0.62925,-1.59286 1.3097,-3.43862 1.51258,-4.10236c0.71728,-2.34668 2.65873,-1.16737 2.65873,1.61511c0,3.65788 4.73377,8.53034 10.50194,10.80756c13.80553,5.45208 32.64759,-2.24357 43.59525,-17.80582c4.07393,-5.79073 4.19191,-6.21676 4.19191,-15.12863c0,-9.91751 -0.72102,-11.62325 -7.66405,-18.12439c-5.77254,-5.40595 -17.38192,-7.03517 -25.20203,-3.53631c-1.58874,0.71095 -4.46159,2.84978 -6.38431,4.75361c-3.11194,3.08152 -3.49586,4.11375 -3.49586,9.41225c0,4.27223 -0.33897,5.6556 -1.20295,4.90503c-1.57876,-1.37252 -1.52881,-8.70401 0.08428,-12.36948c1.70361,-3.87116 4.16632,-6.1093 9.16477,-8.32737c13.03519,-5.78368 27.7409,-1.47672 34.46481,10.09389c7.95808,13.69424 4.00713,26.23847 -13.15879,41.78173c-12.57386,11.38555 -17.13908,17.90188 -17.13908,24.46598c0,4.13763 1.84407,9.46977 4.04334,11.69218c2.17243,2.19473 1.87902,2.81993 -1.32281,2.81993c-7.601,0 -12.71307,-5.35602 -12.71307,-13.32085c0,-3.84131 0.67732,-5.50798 3.60823,-8.87659c7.49238,-8.61229 7.3438,-8.01422 1.44828,-5.81678c-10.16359,3.78758 -20.8166,1.84848 -25.85251,-4.70531c-2.70305,-3.51894 -2.94214,-5.66699 -1.13865,-10.23337l0,0zm0,-376.25431c-1.80349,-4.56583 -1.56377,-6.71388 1.14052,-10.23337c5.03591,-6.55378 15.68892,-8.49235 25.85251,-4.70531c5.89552,2.1969 6.04409,2.79551 -1.44828,-5.81678c-2.9309,-3.36861 -3.60823,-5.03528 -3.60823,-8.87659c0,-7.96429 5.11207,-13.32085 12.71307,-13.32085c3.20183,0 3.49461,0.6252 1.32281,2.81993c-2.19927,2.2224 -4.04334,7.55454 -4.04334,11.69218c0,6.5641 4.56459,13.08043 17.13908,24.46598c17.16592,15.54326 21.11687,28.08804 13.15879,41.78173c-6.72391,11.57007 -21.42962,15.87703 -34.46481,10.09389c-4.99783,-2.21752 -7.46116,-4.4562 -9.16477,-8.32737c-1.61309,-3.66547 -1.66241,-10.99696 -0.08428,-12.36948c0.86335,-0.75057 1.20295,0.6328 1.20295,4.90503c0,5.29795 0.3833,6.33073 3.49586,9.41225c1.9221,1.90383 4.79557,4.04266 6.38431,4.75361c7.82011,3.49886 19.42887,1.86964 25.20203,-3.53631c6.94303,-6.50168 7.66405,-8.20688 7.66405,-18.12439c0,-8.91187 -0.11799,-9.33735 -4.19191,-15.12863c-10.94766,-15.5628 -29.78972,-23.2579 -43.59525,-17.80582c-5.76817,2.27776 -10.50194,7.14968 -10.50194,10.80756c0,2.78248 -1.94145,3.96179 -2.65873,1.61511c-0.20538,-0.66374 -0.88583,-2.5095 -1.51446,-4.10236l0,0zm-620.02135,-162.77113c-5.25191,1.56789 -7.72273,1.36004 -11.77106,-0.99153c-7.53857,-4.37805 -9.76843,-13.63943 -5.41234,-22.47531c2.52701,-5.12537 3.21557,-5.25453 -6.69083,1.25909c-3.87479,2.54803 -5.79189,3.13687 -10.21041,3.13687c-9.16103,0 -15.32248,-4.44426 -15.32248,-11.05232c0,-2.78357 0.71915,-3.03864 3.24366,-1.15001c2.55635,1.91197 8.68971,3.51514 13.44907,3.51514c7.55043,0 15.04593,-3.96831 28.1423,-14.90015c17.87883,-14.92348 32.30861,-18.3583 48.05996,-11.43982c13.30861,5.84555 18.26275,18.6302 11.61062,29.96256c-2.55073,4.34495 -5.1258,6.48649 -9.57866,7.96755c-4.21626,1.40237 -12.64939,1.44524 -14.22815,0.07327c-0.86335,-0.75057 0.72789,-1.04581 5.64207,-1.04581c6.09403,0 7.282,-0.33322 10.82655,-3.03918c2.18991,-1.67155 4.65012,-4.16911 5.4679,-5.55031c4.02461,-6.79855 2.15058,-16.89081 -4.06768,-21.90981c-7.47864,-6.03604 -9.44007,-6.66287 -20.84781,-6.66287c-10.25099,0 -10.74041,0.10257 -17.40189,3.64431c-17.9013,9.51753 -26.75269,25.89819 -20.48137,37.90026c2.62002,5.01465 8.22401,9.13004 12.43153,9.13004c3.20058,0 4.5571,1.68838 1.8578,2.31141c-0.76347,0.17801 -2.88658,0.76956 -4.71879,1.31662l0,0zm-187.22952,539.02598c1.80349,4.56583 1.5644,6.71388 -1.14052,10.23337c-5.03591,6.55378 -15.68892,8.49235 -25.85251,4.70531c-5.89552,-2.1969 -6.04409,-2.79551 1.44828,5.81678c2.9309,3.36861 3.60823,5.03528 3.60823,8.87659c0,7.96429 -5.11207,13.32085 -12.71307,13.32085c-3.20183,0 -3.49524,-0.62466 -1.32281,-2.81993c2.19927,-2.2224 4.04334,-7.55454 4.04334,-11.69218c0,-6.5641 -4.56459,-13.08043 -17.13908,-24.46598c-17.16592,-15.5438 -21.11687,-28.08804 -13.15879,-41.78173c6.72391,-11.57061 21.42962,-15.87703 34.46481,-10.09389c4.99783,2.21752 7.46116,4.4562 9.16477,8.32737c1.61309,3.66547 1.66241,10.99696 0.08428,12.36948c-0.86335,0.75057 -1.20295,-0.6328 -1.20295,-4.90503c0,-5.29795 -0.3833,-6.33073 -3.49586,-9.41225c-1.92272,-1.90383 -4.79557,-4.04266 -6.38431,-4.75361c-7.82011,-3.49886 -19.42887,-1.86964 -25.20203,3.53631c-6.94303,6.50168 -7.66405,8.20688 -7.66405,18.12439c0,8.91187 0.11799,9.33789 4.19191,15.12863c10.94766,15.5628 29.78972,23.2579 43.59525,17.80582c5.76817,-2.27776 10.50194,-7.14968 10.50194,-10.80756c0,-2.78248 1.94208,-3.96179 2.65873,-1.61511c0.20476,0.66319 0.8852,2.5095 1.51446,4.10236l0,0zm620.02135,162.77113c5.25191,-1.56789 7.72273,-1.35949 11.77106,0.99153c7.53857,4.37805 9.76843,13.63943 5.41234,22.47531c-2.52701,5.12537 -3.21557,5.25453 6.69083,-1.25909c3.87479,-2.54803 5.79189,-3.13687 10.21041,-3.13687c9.16103,0 15.32248,4.44426 15.32248,11.05232c0,2.78357 -0.71852,3.0381 -3.24366,1.15001c-2.55635,-1.91197 -8.68971,-3.51514 -13.44907,-3.51514c-7.55043,0 -15.04593,3.96831 -28.1423,14.90015c-17.87945,14.92348 -32.30861,18.3583 -48.05996,11.43982c-13.30924,-5.84555 -18.26275,-18.6302 -11.61062,-29.96256c2.55073,-4.34495 5.1258,-6.48649 9.57866,-7.96755c4.21626,-1.40237 12.64939,-1.44524 14.22815,-0.07327c0.86335,0.75057 -0.72789,1.04581 -5.64207,1.04581c-6.09403,0 -7.282,0.33322 -10.82655,3.03918c-2.18991,1.67101 -4.65012,4.16911 -5.4679,5.55031c-4.02461,6.79855 -2.15058,16.89081 4.06768,21.90981c7.47864,6.03604 9.44007,6.66287 20.84781,6.66287c10.25099,0 10.74103,-0.10257 17.40189,-3.64431c17.9013,-9.51753 26.75269,-25.89819 20.48137,-37.90026c-2.62002,-5.01465 -8.22401,-9.13004 -12.43153,-9.13004c-3.20058,0 -4.5571,-1.68783 -1.8578,-2.31141c0.76285,-0.17855 2.88658,-0.77011 4.71879,-1.31662l0,0zm11.45643,-710.57818c3.07698,-4.00195 4.98098,-15.11506 2.59006,-15.11506c-0.66484,0 -0.92328,0.64637 -0.57494,1.43656c1.46826,3.32682 -2.04945,11.29111 -6.95177,15.73918c-2.66996,2.42266 -4.85488,4.56909 -4.85488,4.76935c0,1.39368 7.47989,-3.82395 9.79153,-6.83002l0,0zm-641.57832,161.59236c-4.6033,-2.67503 -17.38628,-4.3303 -17.38628,-2.25171c0,0.57799 0.74349,0.80267 1.65242,0.49984c3.82672,-1.27646 12.98774,1.78172 18.10418,6.04364c2.7867,2.32118 5.25565,4.22067 5.486,4.22067c1.6031,0 -4.39854,-6.50277 -7.85632,-8.51243l0,0zm185.87362,557.76689c-3.07698,4.0025 -4.98098,15.11506 -2.59006,15.11506c0.66484,0 0.92328,-0.64637 0.57494,-1.43656c-1.46826,-3.32682 2.04945,-11.29111 6.95177,-15.73918c2.66996,-2.42266 4.85488,-4.56909 4.85488,-4.76935c0,-1.39423 -7.47989,3.8234 -9.79153,6.83002l0,0zm641.57832,-161.59236c4.60392,2.67503 17.38628,4.3303 17.38628,2.25171c0,-0.57799 -0.74349,-0.80267 -1.65242,-0.49984c-3.82672,1.27646 -12.98774,-1.78172 -18.10418,-6.04364c-2.7867,-2.32118 -5.25565,-4.22067 -5.486,-4.22067c-1.60373,0 4.39792,6.50277 7.85632,8.51243l0,0zm0,-396.17454c-3.4584,2.00966 -9.46005,8.51243 -7.85632,8.51243c0.23035,0 2.6993,-1.89949 5.486,-4.22067c5.11644,-4.26191 14.27747,-7.32009 18.10418,-6.04364c0.90892,0.30338 1.65242,0.07815 1.65242,-0.49984c0,-2.07859 -12.78299,-0.42331 -17.38628,2.25171l0,0zm-641.57832,-161.5929c2.31164,3.00662 9.79153,8.22425 9.79153,6.83002c0,-0.20026 -2.18491,-2.34668 -4.85488,-4.76935c-4.90232,-4.44806 -8.42003,-12.41236 -6.95177,-15.73918c0.34896,-0.79019 0.08989,-1.43656 -0.57494,-1.43656c-2.39092,0 -0.48692,11.1131 2.59006,15.11506l0,0zm-185.87425,557.76744c3.4584,-2.00966 9.46005,-8.51243 7.85632,-8.51243c-0.23035,0 -2.6993,1.89949 -5.486,4.22067c-5.11644,4.26191 -14.27747,7.32009 -18.10418,6.04364c-0.90892,-0.30338 -1.65242,-0.07815 -1.65242,0.49984c0,2.07859 12.78299,0.42277 17.38628,-2.25171l0,0zm641.57894,161.59236c-2.31164,-3.00662 -9.79153,-8.22425 -9.79153,-6.83002c0,0.20026 2.18491,2.34668 4.85488,4.76935c4.90232,4.44806 8.42003,12.41236 6.95177,15.73918c-0.34896,0.79019 -0.08989,1.43656 0.57494,1.43656c2.39092,0 0.4863,-11.1131 -2.59006,-15.11506l0,0zm29.90209,-736.39443c4.81742,-2.55346 4.56834,-3.15641 -0.53811,-1.30142c-4.81243,1.74807 -12.74865,1.26506 -17.99931,-1.09519c-1.86467,-0.83849 -3.39036,-1.27591 -3.39036,-0.97254c0,1.12558 11.77481,5.27027 14.9885,5.27624c1.83158,0.00271 4.95413,-0.85531 6.93928,-1.90709l0,0zm-691.07533,152.63165c-2.93715,-4.1881 -3.6307,-3.97156 -1.49698,0.46782c2.01074,4.18376 1.45515,11.08325 -1.25976,15.648c-0.96448,1.62108 -1.46764,2.94747 -1.11868,2.94747c1.29472,0 6.0622,-10.23662 6.06906,-13.0305c0.00312,-1.59286 -0.98383,-4.3075 -2.19365,-6.03278l0,0zm175.56646,600.79795c-4.81742,2.55346 -4.56834,3.15641 0.53811,1.30142c4.81243,-1.74807 12.74865,-1.26506 17.99931,1.09519c1.86467,0.83849 3.39036,1.27591 3.39036,0.97254c0,-1.12558 -11.77481,-5.27027 -14.9885,-5.27624c-1.83221,-0.00271 -4.95476,0.85477 -6.93928,1.90709l0,0zm691.07533,-152.63165c2.93715,4.1881 3.6307,3.97156 1.49698,-0.46782c-2.01074,-4.18376 -1.45515,-11.08325 1.25976,-15.648c0.96448,-1.62108 1.46764,-2.94747 1.11868,-2.94747c-1.29472,0 -6.0622,10.23662 -6.06906,13.0305c-0.00312,1.59232 0.98321,4.30696 2.19365,6.03278l0,0zm0,-448.1663c-1.20982,1.72528 -2.19677,4.43992 -2.19365,6.03278c0.00624,2.79442 4.77372,13.0305 6.06906,13.0305c0.34896,0 -0.15419,-1.32639 -1.11868,-2.94747c-2.71491,-4.56475 -3.2705,-11.46424 -1.25976,-15.648c2.13372,-4.43938 1.44017,-4.65592 -1.49698,-0.46782l0,0zm-691.07533,-152.63165c1.98452,1.05177 5.10708,1.9098 6.93928,1.90709c3.21432,-0.00597 14.9885,-4.15012 14.9885,-5.27624c0,-0.30338 -1.52569,0.13405 -3.39036,0.97254c-5.25066,2.36025 -13.18688,2.84327 -17.99931,1.09519c-5.10645,-1.85499 -5.35553,-1.25258 -0.53811,1.30142l0,0zm-175.56646,600.79741c1.20982,-1.72528 2.19677,-4.43992 2.19365,-6.03278c-0.00687,-2.79442 -4.77372,-13.0305 -6.06906,-13.0305c-0.34896,0 0.15419,1.32639 1.11868,2.94747c2.71491,4.56475 3.2705,11.46424 1.25976,15.648c-2.13372,4.43938 -1.44079,4.65646 1.49698,0.46782l0,0zm691.0747,152.63219c-1.98452,-1.05177 -5.10708,-1.9098 -6.93928,-1.90709c-3.21432,0.00543 -14.9885,4.15012 -14.9885,5.27624c0,0.30338 1.52569,-0.13405 3.39036,-0.97254c5.25066,-2.36025 13.18688,-2.84327 17.99931,-1.09519c5.10645,1.85499 5.35616,1.25204 0.53811,-1.30142l0,0z" id="path4147"/>
   <path stroke="null" fill="none" d="m580.50203,297.6365c8.40579,0 25.21736,-2.70264 42.02913,-5.4054l16.81158,0" id="svg_1"/>
  </g>
 </g>
</svg>